<svg xmlns="http://www.w3.org/2000/svg" xmlns:xlink="http://www.w3.org/1999/xlink" width="1024" height="1024" viewBox="0 0 1024 1024"><defs><style>.a,.b{fill:none;}.a{opacity:0;}.c{isolation:isolate;}.d{clip-path:url(#a);}.e{fill:#ebebeb;}.f{clip-path:url(#b);}.g{fill:#666;}.h{opacity:0.33;}.h,.jb,.jd{mix-blend-mode:multiply;}.i{fill:#010101;}.j{fill:#020202;}.k{fill:#030303;}.l{fill:#040404;}.m{fill:#050505;}.n{fill:#060606;}.o{fill:#070707;}.p{fill:#080808;}.q{fill:#090909;}.r{fill:#0a0a0a;}.s{fill:#0b0b0b;}.t{fill:#0c0c0c;}.u{fill:#0d0d0d;}.v{fill:#0e0e0e;}.w{fill:#0f0f0f;}.x{fill:#101010;}.y{fill:#111;}.z{fill:#121212;}.aa{fill:#131313;}.ab{fill:#141414;}.ac{fill:#151515;}.ad{fill:#161616;}.ae{fill:#171717;}.af{fill:#181818;}.ag{fill:#191919;}.ah{fill:#1a1a1a;}.ai{fill:#1b1b1b;}.aj{fill:#1c1c1c;}.ak{fill:#1d1d1d;}.al{fill:#1e1e1e;}.am{fill:#1f1f1f;}.an{fill:#202020;}.ao{fill:#212121;}.ap{fill:#222;}.aq{fill:#232323;}.ar{fill:#242424;}.as{fill:#252525;}.at{fill:#262626;}.au{fill:#272727;}.av{fill:#282828;}.aw{fill:#292929;}.ax{fill:#2a2a2a;}.ay{fill:#2b2b2b;}.az{fill:#2c2c2c;}.ba{fill:#2d2d2d;}.bb{fill:#2e2e2e;}.bc{fill:#2f2f2f;}.bd{fill:#303030;}.be{fill:#313131;}.bf{fill:#323232;}.bg{fill:#333;}.bh{fill:#343434;}.bi{fill:#353535;}.bj{fill:#363636;}.bk{fill:#373737;}.bl{fill:#383838;}.bm{fill:#393939;}.bn{fill:#3a3a3a;}.bo{fill:#3b3b3b;}.bp{fill:#3c3c3c;}.bq{fill:#3d3d3d;}.br{fill:#3e3e3e;}.bs{fill:#3f3f3f;}.bt{fill:#404040;}.bu{fill:#414141;}.bv{fill:#424242;}.bw{fill:#434343;}.bx{fill:#444;}.by{fill:#454545;}.bz{fill:#464646;}.ca{fill:#474747;}.cb{fill:#484848;}.cc{fill:#494949;}.cd{fill:#4a4a4a;}.ce{fill:#4b4b4b;}.cf{fill:#4c4c4c;}.cg{fill:#4d4d4d;}.ch{fill:#4e4e4e;}.ci{fill:#4f4f4f;}.cj{fill:#505050;}.ck{fill:#515151;}.cl{fill:#525252;}.cm{fill:#535353;}.cn{fill:#545454;}.co{fill:#555;}.cp{fill:#565656;}.cq{fill:#575757;}.cr{fill:#585858;}.cs{fill:#595959;}.ct{fill:#5a5a5a;}.cu{fill:#5b5b5b;}.cv{fill:#5c5c5c;}.cw{fill:#5d5d5d;}.cx{fill:#5e5e5e;}.cy{fill:#5f5f5f;}.cz{fill:#606060;}.da{fill:#616161;}.db{fill:#626262;}.dc{fill:#636363;}.dd{fill:#646464;}.de{fill:#656565;}.df{fill:#676767;}.dg{fill:#686868;}.dh{fill:#696969;}.di{fill:#6a6a6a;}.dj{fill:#6b6b6b;}.dk{fill:#6c6c6c;}.dl{fill:#6d6d6d;}.dm{fill:#6e6e6e;}.dn{fill:#6f6f6f;}.do{fill:#707070;}.dp{fill:#717171;}.dq{fill:#727272;}.dr{fill:#737373;}.ds{fill:#747474;}.dt{fill:#757575;}.du{fill:#767676;}.dv{fill:#777;}.dw{fill:#787878;}.dx{fill:#797979;}.dy{fill:#7a7a7a;}.dz{fill:#7b7b7b;}.ea{fill:#7c7c7c;}.eb{fill:#7d7d7d;}.ec{fill:#7e7e7e;}.ed{fill:#7f7f7f;}.ee{fill:gray;}.ef{fill:#818181;}.eg{fill:#828282;}.eh{fill:#838383;}.ei{fill:#848484;}.ej{fill:#858585;}.ek{fill:#868686;}.el{fill:#878787;}.em{fill:#888;}.en{fill:#898989;}.eo{fill:#8a8a8a;}.ep{fill:#8b8b8b;}.eq{fill:#8c8c8c;}.er{fill:#8d8d8d;}.es{fill:#8e8e8e;}.et{fill:#8f8f8f;}.eu{fill:#909090;}.ev{fill:#919191;}.ew{fill:#929292;}.ex{fill:#939393;}.ey{fill:#949494;}.ez{fill:#959595;}.fa{fill:#969696;}.fb{fill:#979797;}.fc{fill:#989898;}.fd{fill:#999;}.fe{fill:#9a9a9a;}.ff{fill:#9b9b9b;}.fg{fill:#9c9c9c;}.fh{fill:#9d9d9d;}.fi{fill:#9e9e9e;}.fj{fill:#9f9f9f;}.fk{fill:#a0a0a0;}.fl{fill:#a1a1a1;}.fm{fill:#a2a2a2;}.fn{fill:#a3a3a3;}.fo{fill:#a4a4a4;}.fp{fill:#a5a5a5;}.fq{fill:#a6a6a6;}.fr{fill:#a7a7a7;}.fs{fill:#a8a8a8;}.ft{fill:#a9a9a9;}.fu{fill:#aaa;}.fv{fill:#ababab;}.fw{fill:#acacac;}.fx{fill:#adadad;}.fy{fill:#aeaeae;}.fz{fill:#afafaf;}.ga{fill:#b0b0b0;}.gb{fill:#b1b1b1;}.gc{fill:#b2b2b2;}.gd{fill:#b3b3b3;}.ge{fill:#b4b4b4;}.gf{fill:#b5b5b5;}.gg{fill:#b6b6b6;}.gh{fill:#b7b7b7;}.gi{fill:#b8b8b8;}.gj{fill:#b9b9b9;}.gk{fill:#bababa;}.gl{fill:#bbb;}.gm{fill:#bcbcbc;}.gn{fill:#bdbdbd;}.go{fill:#bebebe;}.gp{fill:#bfbfbf;}.gq{fill:silver;}.gr{fill:#c1c1c1;}.gs{fill:#c2c2c2;}.gt{fill:#c3c3c3;}.gu{fill:#c4c4c4;}.gv{fill:#c5c5c5;}.gw{fill:#c6c6c6;}.gx{fill:#c7c7c7;}.gy{fill:#c8c8c8;}.gz{fill:#c9c9c9;}.ha{fill:#cacaca;}.hb{fill:#cbcbcb;}.hc{fill:#ccc;}.hd{fill:#cdcdcd;}.he{fill:#cecece;}.hf{fill:#cfcfcf;}.hg{fill:#d0d0d0;}.hh{fill:#d1d1d1;}.hi{fill:#d2d2d2;}.hj{fill:#d3d3d3;}.hk{fill:#d4d4d4;}.hl{fill:#d5d5d5;}.hm{fill:#d6d6d6;}.hn{fill:#d7d7d7;}.ho{fill:#d8d8d8;}.hp{fill:#d9d9d9;}.hq{fill:#dadada;}.hr{fill:#dbdbdb;}.hs{fill:#dcdcdc;}.ht{fill:#ddd;}.hu{fill:#dedede;}.hv{fill:#dfdfdf;}.hw{fill:#e0e0e0;}.hx{fill:#e1e1e1;}.hy{fill:#e2e2e2;}.hz{fill:#e3e3e3;}.ia{fill:#e4e4e4;}.ib{fill:#e5e5e5;}.ic{fill:#e6e6e6;}.id{fill:#e7e7e7;}.ie{fill:#e8e8e8;}.if{fill:#e9e9e9;}.ig{fill:#eaeaea;}.ih{fill:#ececec;}.ii{fill:#ededed;}.ij{fill:#eee;}.ik{fill:#efefef;}.il{fill:#f0f0f0;}.im{fill:#f1f1f1;}.in{fill:#f2f2f2;}.io{fill:#f3f3f3;}.ip{fill:#f4f4f4;}.iq{fill:#f5f5f5;}.ir{fill:#f6f6f6;}.is{fill:#f7f7f7;}.it{fill:#f8f8f8;}.iu{fill:#f9f9f9;}.iv{fill:#fafafa;}.iw{fill:#fbfbfb;}.ix{fill:#fcfcfc;}.iy{fill:#fdfdfd;}.iz{fill:#fefefe;}.ja{fill:#fff;}.jb{opacity:0.66;fill:url(#c);}.jc{clip-path:url(#d);}.jd{fill:url(#e);}.je{fill:#fbb03b;}.jf{fill:#f7931e;}.jg{fill:#fcc062;}.jh{opacity:0.54;mix-blend-mode:overlay;fill:url(#f);}</style><clipPath id="a"><rect class="a" x="1280" width="1024" height="1024" rx="225.02"/></clipPath><clipPath id="b"><rect class="a" width="1024" height="1024"/></clipPath><radialGradient id="c" cx="-0.57" cy="-7.64" r="1489.28" gradientUnits="userSpaceOnUse"><stop offset="0.51"/><stop offset="0.52" stop-color="#020202"/><stop offset="0.56" stop-color="#3c3c3c"/><stop offset="0.61" stop-color="#707070"/><stop offset="0.66" stop-color="#9c9c9c"/><stop offset="0.7" stop-color="silver"/><stop offset="0.75" stop-color="#dcdcdc"/><stop offset="0.8" stop-color="#efefef"/><stop offset="0.85" stop-color="#fbfbfb"/><stop offset="0.9" stop-color="#fff"/></radialGradient><clipPath id="d"><path class="b" d="M936-32.86V198.57a32,32,0,0,1-27.46,31.65l-79.63,11.35a5.52,5.52,0,0,1-.81.06,5.72,5.72,0,0,1-5.26-3.49A65.29,65.29,0,0,0,805,214.23a5.7,5.7,0,0,1-1.4-6.89l121.6-243a5.7,5.7,0,0,1,5.1-3.16,5.75,5.75,0,0,1,1.72.26A5.89,5.89,0,0,1,936-32.86Zm-3.65-559.59a5.69,5.69,0,0,0-2.06-.38,5.7,5.7,0,0,0-4.23,1.87L738.17-384.46a5.68,5.68,0,0,0-.46,7.09c7.65,11,11.45,23.35,10.69,34.78q0,.38,0,.75c.63,9.58-1.9,19.73-7.31,29.33a5.7,5.7,0,0,0,1.16,7L904.89-159.2a5.71,5.71,0,0,0,3.82,1.46,5.69,5.69,0,0,0,3.27-1,62.83,62.83,0,0,1,19.77-9.34,5.7,5.7,0,0,0,4.25-5.52v-413.5A5.71,5.71,0,0,0,932.35-592.45Zm-657.7-13.27,358.1,218.66a5.68,5.68,0,0,0,3,.84,5.73,5.73,0,0,0,4-1.63c12-11.79,27.08-18.55,41.26-18.55,1,0,1.94,0,2.9.1h.74c1-.06,1.92-.1,2.89-.1,8.73,0,18,2.63,26.78,7.61a5.68,5.68,0,0,0,2.81.74,5.68,5.68,0,0,0,4.23-1.87L912.91-610.45a5.72,5.72,0,0,0,1-6.15,5.72,5.72,0,0,0-5.23-3.4H278.73a5.69,5.69,0,0,0-5.52,4.26c-.3,1.12-.63,2.23-1,3.34A5.71,5.71,0,0,0,274.65-605.72Zm631,548.42C894.55-67,886.93-79.51,884.23-92.48A5.71,5.71,0,0,0,878.88-97L383.13-117.68a5.71,5.71,0,0,0-5.45,4,60.51,60.51,0,0,1-4.72,11,5.72,5.72,0,0,0,1.23,7l345.93,305a5.7,5.7,0,0,0,7.09.37c9.79-7,20.84-10.88,31.13-11,.22,0,.43,0,.65,0a46.51,46.51,0,0,1,5.93-.38,52.58,52.58,0,0,1,12,1.45,5.48,5.48,0,0,0,1.32.16,5.7,5.7,0,0,0,5.11-3.16L907-50.45A5.69,5.69,0,0,0,905.69-57.3ZM687.55-278.07c-1,0-1.95,0-2.92-.09l-.37,0-.37,0c-1,.06-1.94.09-2.92.09-14.5,0-30.41-7.43-42.56-19.89a5.71,5.71,0,0,0-4.09-1.72,5.63,5.63,0,0,0-2.83.75L380.66-155.74a5.7,5.7,0,0,0-2.65,6.56c.41,1.39.76,2.78,1.06,4.17a5.7,5.7,0,0,0,5.35,4.53l495.74,20.65a5.7,5.7,0,0,0,5.44-4,62.32,62.32,0,0,1,5-11.51,5.69,5.69,0,0,0-1.16-7L726.79-288.64A5.67,5.67,0,0,0,723-290.1a5.69,5.69,0,0,0-3.27,1C709.52-282,698.1-278.07,687.55-278.07ZM358.91-78.71a5.68,5.68,0,0,0-3.78-1.43,5.67,5.67,0,0,0-3.31,1.06c-9,6.39-18.85,10.25-28.48,11.15A5.71,5.71,0,0,0,318.21-63L283.52,197a5.7,5.7,0,0,0,3.39,6l1,.43c17.69,6.69,32.44,23.72,37.57,43.39a5.71,5.71,0,0,0,5.53,4.27H695.2a5.71,5.71,0,0,0,5.53-4.26,60.07,60.07,0,0,1,5.42-13.49,5.71,5.71,0,0,0-1.24-7ZM313.09-200.59a5.71,5.71,0,0,0,5.59,4.53h.47c14.52,0,30.44,7.44,42.59,19.89a5.69,5.69,0,0,0,4.09,1.73,5.8,5.8,0,0,0,2.84-.75L619.49-318.38a5.7,5.7,0,0,0,2.64-6.57,48.17,48.17,0,0,1-2-16.89,4.7,4.7,0,0,0,0-.75,49,49,0,0,1,2.58-18.66,5.7,5.7,0,0,0-2.45-6.66L262.15-586.6a5.78,5.78,0,0,0-3-.84,5.7,5.7,0,0,0-4,1.64,69.59,69.59,0,0,1-16.48,12,5.69,5.69,0,0,0-2.94,6.23ZM292.16-72.16A69.41,69.41,0,0,1,268.58-89.1a5.73,5.73,0,0,0-4.22-1.85,5.67,5.67,0,0,0-2.67.66L-65.94,83a5.69,5.69,0,0,0-2.86,6.45,47.81,47.81,0,0,1,1.45,14.93c0,.25,0,.49,0,.74a44.9,44.9,0,0,1-.24,8.33,5.7,5.7,0,0,0,3.55,6L204.53,226.74a5.87,5.87,0,0,0,2.12.41,5.72,5.72,0,0,0,4.64-2.37,52.22,52.22,0,0,1,6.54-7.45l.24-.25c9.18-9.73,23-16.32,37.8-18.09a5.71,5.71,0,0,0,5-4.91L295.57-66.16A5.7,5.7,0,0,0,292.16-72.16ZM-202.32-337.31a49.67,49.67,0,0,1,3.4,21,6.26,6.26,0,0,0,0,.75c.08,1.26.11,2.52.09,3.79a5.72,5.72,0,0,0,4,5.56l449.8,143a5.72,5.72,0,0,0,1.73.26,5.71,5.71,0,0,0,4.78-2.57,72.36,72.36,0,0,1,26.34-24,5.69,5.69,0,0,0,2.94-6.23l-77.35-367a5.71,5.71,0,0,0-5.59-4.53h-.46c-13.45,0-27.81-6.11-39.41-16.77a5.74,5.74,0,0,0-3.87-1.5,5.74,5.74,0,0,0-3.17,1l-361,240.48A5.7,5.7,0,0,0-202.32-337.31ZM253.21-116.58a47.43,47.43,0,0,1-1.46-14.91,4.7,4.7,0,0,0,0-.75c-.08-1.26-.12-2.53-.09-3.8a5.72,5.72,0,0,0-4-5.55l-449.79-143a5.43,5.43,0,0,0-1.73-.27,5.72,5.72,0,0,0-4.78,2.58,72.24,72.24,0,0,1-21,20.89,5.69,5.69,0,0,0-2.35,6.49l91.16,291.44a5.71,5.71,0,0,0,5.45,4h.63c1,0,2,0,2.91.1h.76c1-.06,1.93-.09,2.9-.09,15.29,0,31.73,8,44,21.37A5.69,5.69,0,0,0-80,63.8a5.79,5.79,0,0,0,2.67-.66L250.34-110.12A5.73,5.73,0,0,0,253.21-116.58Zm-5.66,441.23a67.56,67.56,0,0,1-28.67-16,5.71,5.71,0,0,0-6.94-.68l-306,191.08a5.71,5.71,0,0,0-2.37,6.7A49.28,49.28,0,0,1-93.66,525a6.26,6.26,0,0,0,0,.75,48,48,0,0,1-1.88,16.48,5.71,5.71,0,0,0,2.69,6.56L210.08,719.06a5.71,5.71,0,0,0,6.91-1,67.34,67.34,0,0,1,30.58-18.44,5.71,5.71,0,0,0,4.25-5.52V330.17A5.71,5.71,0,0,0,247.55,324.65Zm-8.66,496.92a65.44,65.44,0,0,1-22.62-16.38,5.71,5.71,0,0,0-6.94-1.2L-13.44,923.84a5.71,5.71,0,0,0-3,5.83,7.48,7.48,0,0,0,.18.82,5.72,5.72,0,0,0,5.49,4.15h210A32,32,0,0,0,231,907.18l11.36-79.55A5.7,5.7,0,0,0,238.89,821.57ZM196.27,248-73.07,140.37a5.83,5.83,0,0,0-2.12-.41,5.7,5.7,0,0,0-4.57,2.28c-10.14,13.46-25,23.13-39.89,25.86a5.71,5.71,0,0,0-4.66,5.26l-17.8,284.94a5.7,5.7,0,0,0,3.85,5.75,67.33,67.33,0,0,1,24.54,15.27,5.7,5.7,0,0,0,4,1.59,5.63,5.63,0,0,0,3-.87L199.73,288.68a5.72,5.72,0,0,0,2.4-6.65,62.05,62.05,0,0,1-2.32-27.93A5.69,5.69,0,0,0,196.27,248Zm4.57,529.58a50.36,50.36,0,0,1-1.57-19.8c0-.22,0-.44,0-.66a47.87,47.87,0,0,1,1.73-12,5.69,5.69,0,0,0-2.71-6.48l-303-170.33a5.7,5.7,0,0,0-2.79-.73,5.73,5.73,0,0,0-4.13,1.75A70.62,70.62,0,0,1-131,583.68a5.72,5.72,0,0,0-3.08,6.17l53.94,287.41a5.72,5.72,0,0,0,5.5,4.65c14.85.32,30.85,8.19,42.79,21a5.7,5.7,0,0,0,4.19,1.83,5.74,5.74,0,0,0,2.71-.69l223-120A5.7,5.7,0,0,0,200.84,777.61ZM-306.82-368.47a5.73,5.73,0,0,0,3.72,1.37,5.71,5.71,0,0,0,3.38-1.1c10.46-7.66,22.33-11.88,33.42-11.88,1,0,1.94,0,2.9.09h.74q1.46-.09,2.91-.09c13.27,0,27.63,6.12,39.39,16.81a5.72,5.72,0,0,0,3.84,1.49,5.72,5.72,0,0,0,3.17-1l361.09-240.5a5.74,5.74,0,0,0,2.17-6.79,53.58,53.58,0,0,1-1.85-5.72,5.71,5.71,0,0,0-5.52-4.25H-585.09a5.72,5.72,0,0,0-5.36,3.73,5.69,5.69,0,0,0,1.64,6.31Zm150.33,962.66a5.71,5.71,0,0,0-5.49-4.65c-10.41-.23-21.61-4.21-31.53-11.21a5.67,5.67,0,0,0-3.3-1.05,5.76,5.76,0,0,0-3.8,1.44L-590.14,924.66a5.72,5.72,0,0,0-1.55,6.3,5.73,5.73,0,0,0,5.34,3.68h439.42a5.72,5.72,0,0,0,5.53-4.27c4.65-17.85,18.34-34.21,35.72-42.68a5.72,5.72,0,0,0,3.11-6.18ZM-570.86,189.93-204,475a5.66,5.66,0,0,0,3.5,1.21,5.74,5.74,0,0,0,3.59-1.26,61.55,61.55,0,0,1,27.32-13,5.72,5.72,0,0,0,4.68-5.26l17.79-284.9a5.69,5.69,0,0,0-3.85-5.76c-17.9-6.12-34-21.56-41-39.33a5.72,5.72,0,0,0-5.32-3.62,4.12,4.12,0,0,0-.6,0l-364.64,38.38a5.7,5.7,0,0,0-5.07,5A54.62,54.62,0,0,1-572.51,183,5.71,5.71,0,0,0-570.86,189.93Zm5.2-51,.61,0,364.7-38.38a5.71,5.71,0,0,0,5.06-4.94c2.28-17.4,13.92-34.8,30.38-45.39a5.7,5.7,0,0,0,2.36-6.5L-253.7-247.76a5.7,5.7,0,0,0-5.45-4h-.66c-.94,0-1.89,0-2.83-.09h-.74c-1,.06-1.95.1-2.92.1a53.11,53.11,0,0,1-22.42-5.32,5.67,5.67,0,0,0-2.43-.55,5.75,5.75,0,0,0-4.52,2.2L-581,111.17a5.71,5.71,0,0,0,0,7.07,66.08,66.08,0,0,1,10,17A5.71,5.71,0,0,0-565.66,138.89Zm350.89,415.89c-5.29-9.52-7.76-19.55-7.14-29a4.7,4.7,0,0,0,0-.75,51.61,51.61,0,0,1,5.19-25.29,5.71,5.71,0,0,0-1.65-7L-585.25,207.66a5.74,5.74,0,0,0-3.51-1.2,5.7,5.7,0,0,0-3.56,1.25,65,65,0,0,1-23.44,12.08A5.7,5.7,0,0,0-620,225.3V907.92a5.71,5.71,0,0,0,3.37,5.21,5.83,5.83,0,0,0,2.34.5,5.75,5.75,0,0,0,3.8-1.44L-216,561.82A5.71,5.71,0,0,0-214.77,554.78Zm-401-460a58,58,0,0,1,10,3.66,5.68,5.68,0,0,0,2.44.55,5.7,5.7,0,0,0,4.51-2.2l285.35-366.58a5.7,5.7,0,0,0-.06-7.08c-9.66-12-14.51-25.73-13.66-38.72a4.69,4.69,0,0,0,0-.75c-.59-9.1,1.68-18.78,6.59-28a5.71,5.71,0,0,0-1.33-7l-288.66-247.2a5.74,5.74,0,0,0-3.72-1.37,5.68,5.68,0,0,0-2.38.52,5.7,5.7,0,0,0-3.33,5.18V89.29A5.72,5.72,0,0,0-615.75,94.81Z"/></clipPath><linearGradient id="e" x1="104.49" y1="103.12" x2="580.05" y2="578.68" gradientUnits="userSpaceOnUse"><stop offset="0.14" stop-color="#bababa"/><stop offset="0.4" stop-color="#c6c6c6"/><stop offset="0.86" stop-color="#e5e5e5"/><stop offset="1" stop-color="#f0f0f0"/></linearGradient><linearGradient id="f" x1="289.43" y1="288.39" x2="584.24" y2="583.2" gradientUnits="userSpaceOnUse"><stop offset="0" stop-color="#fff"/><stop offset="0.1" stop-color="#f7f7f7"/><stop offset="0.26" stop-color="#e1e1e1"/><stop offset="0.45" stop-color="#bcbcbc"/><stop offset="0.67" stop-color="#898989"/><stop offset="0.92" stop-color="#4a4a4a"/><stop offset="1" stop-color="#333"/></linearGradient></defs><g class="c"><g class="d"><path class="e" d="M2216-32.86V198.57a32,32,0,0,1-27.46,31.65l-79.63,11.35a5.52,5.52,0,0,1-.81.06,5.72,5.72,0,0,1-5.26-3.49A65.29,65.29,0,0,0,2085,214.23a5.7,5.7,0,0,1-1.4-6.89l121.6-243a5.7,5.7,0,0,1,5.1-3.16,5.75,5.75,0,0,1,1.72.26A5.89,5.89,0,0,1,2216-32.86Zm-3.65-559.59a5.69,5.69,0,0,0-2.06-.38,5.7,5.7,0,0,0-4.23,1.87l-187.89,206.5a5.68,5.68,0,0,0-.46,7.09c7.65,11,11.45,23.35,10.69,34.78q0,.38,0,.75c.63,9.58-1.9,19.73-7.31,29.33a5.7,5.7,0,0,0,1.16,7L2184.89-159.2a5.71,5.71,0,0,0,3.82,1.46,5.69,5.69,0,0,0,3.27-1,62.83,62.83,0,0,1,19.77-9.34,5.7,5.7,0,0,0,4.25-5.52v-413.5A5.71,5.71,0,0,0,2212.35-592.45Zm-657.7-13.27,358.1,218.66a5.68,5.68,0,0,0,3,.84,5.73,5.73,0,0,0,4-1.63c12-11.79,27.08-18.55,41.26-18.55,1,0,1.94,0,2.9.1h.74c1-.06,1.92-.1,2.89-.1,8.73,0,18,2.63,26.78,7.61a5.68,5.68,0,0,0,2.81.74,5.68,5.68,0,0,0,4.23-1.87l191.57-210.53a5.72,5.72,0,0,0,1-6.15,5.72,5.72,0,0,0-5.23-3.4H1558.73a5.69,5.69,0,0,0-5.52,4.26c-.3,1.12-.63,2.23-1,3.34A5.71,5.71,0,0,0,1554.65-605.72Zm631,548.42c-11.14-9.71-18.76-22.21-21.46-35.18a5.71,5.71,0,0,0-5.35-4.54l-495.75-20.66a5.71,5.71,0,0,0-5.45,4,60.51,60.51,0,0,1-4.72,11,5.72,5.72,0,0,0,1.23,7l345.93,305a5.7,5.7,0,0,0,7.09.37c9.79-7,20.84-10.88,31.13-11,.22,0,.43,0,.65,0a46.51,46.51,0,0,1,5.93-.38,52.58,52.58,0,0,1,12,1.45,5.48,5.48,0,0,0,1.32.16,5.7,5.7,0,0,0,5.11-3.16L2187-50.45A5.69,5.69,0,0,0,2185.69-57.3ZM1967.55-278.07c-1,0-2,0-2.92-.09l-.37,0-.37,0c-1,.06-1.94.09-2.92.09-14.5,0-30.41-7.43-42.56-19.89a5.71,5.71,0,0,0-4.09-1.72,5.63,5.63,0,0,0-2.83.75L1660.66-155.74a5.7,5.7,0,0,0-2.65,6.56c.41,1.39.76,2.78,1.06,4.17a5.7,5.7,0,0,0,5.35,4.53l495.74,20.65a5.7,5.7,0,0,0,5.44-4,62.32,62.32,0,0,1,5-11.51,5.69,5.69,0,0,0-1.16-7L2006.79-288.64a5.67,5.67,0,0,0-3.82-1.46,5.69,5.69,0,0,0-3.27,1C1989.52-282,1978.1-278.07,1967.55-278.07ZM1638.91-78.71a5.68,5.68,0,0,0-3.78-1.43,5.67,5.67,0,0,0-3.31,1.06c-9,6.39-18.85,10.25-28.48,11.15a5.71,5.71,0,0,0-5.13,4.93l-34.69,260a5.7,5.7,0,0,0,3.39,6l1,.43c17.69,6.69,32.44,23.72,37.57,43.39a5.71,5.71,0,0,0,5.53,4.27H1975.2a5.71,5.71,0,0,0,5.53-4.26,60.07,60.07,0,0,1,5.42-13.49,5.71,5.71,0,0,0-1.24-7Zm-45.82-121.88a5.71,5.71,0,0,0,5.59,4.53h.47c14.52,0,30.44,7.44,42.59,19.89a5.69,5.69,0,0,0,4.09,1.73,5.8,5.8,0,0,0,2.84-.75l250.82-143.19a5.7,5.7,0,0,0,2.64-6.57,48.17,48.17,0,0,1-2-16.89,4.7,4.7,0,0,0,0-.75,49,49,0,0,1,2.58-18.66,5.7,5.7,0,0,0-2.45-6.66L1542.15-586.6a5.78,5.78,0,0,0-3-.84,5.7,5.7,0,0,0-4,1.64,69.59,69.59,0,0,1-16.48,12,5.69,5.69,0,0,0-2.94,6.23ZM1572.16-72.16a69.41,69.41,0,0,1-23.58-16.94,5.73,5.73,0,0,0-4.22-1.85,5.67,5.67,0,0,0-2.67.66L1214.06,83a5.69,5.69,0,0,0-2.86,6.45,47.81,47.81,0,0,1,1.45,14.93c0,.25,0,.49,0,.74a44.9,44.9,0,0,1-.24,8.33,5.7,5.7,0,0,0,3.55,6l268.57,107.35a5.87,5.87,0,0,0,2.12.41,5.72,5.72,0,0,0,4.64-2.37,52.22,52.22,0,0,1,6.54-7.45l.24-.25c9.18-9.73,23-16.32,37.8-18.09a5.71,5.71,0,0,0,5-4.91l34.72-260.24A5.7,5.7,0,0,0,1572.16-72.16ZM1077.68-337.31a49.67,49.67,0,0,1,3.4,21,6.26,6.26,0,0,0,0,.75c.08,1.26.11,2.52.09,3.79a5.72,5.72,0,0,0,4,5.56l449.8,143a5.72,5.72,0,0,0,1.73.26,5.71,5.71,0,0,0,4.78-2.57,72.36,72.36,0,0,1,26.34-24,5.69,5.69,0,0,0,2.94-6.23l-77.35-367a5.71,5.71,0,0,0-5.59-4.53h-.46c-13.45,0-27.81-6.11-39.41-16.77a5.74,5.74,0,0,0-3.87-1.5,5.74,5.74,0,0,0-3.17,1L1079.85-344.09A5.7,5.7,0,0,0,1077.68-337.31Zm455.53,220.73a47.43,47.43,0,0,1-1.46-14.91,4.69,4.69,0,0,0,0-.75c-.08-1.26-.12-2.53-.09-3.8a5.72,5.72,0,0,0-4-5.55l-449.79-143a5.43,5.43,0,0,0-1.73-.27,5.72,5.72,0,0,0-4.78,2.58,72.24,72.24,0,0,1-21,20.89,5.69,5.69,0,0,0-2.35,6.49l91.16,291.44a5.71,5.71,0,0,0,5.45,4h.63c1,0,2,0,2.91.1h.76c1-.06,1.93-.09,2.9-.09,15.29,0,31.73,8,44,21.37A5.69,5.69,0,0,0,1200,63.8a5.79,5.79,0,0,0,2.67-.66l327.63-173.26A5.73,5.73,0,0,0,1533.21-116.58Zm-5.66,441.23a67.56,67.56,0,0,1-28.67-16,5.71,5.71,0,0,0-6.94-.68l-306,191.08a5.71,5.71,0,0,0-2.37,6.7,49.28,49.28,0,0,1,2.78,19.25,6.26,6.26,0,0,0,0,.75,48,48,0,0,1-1.88,16.48,5.71,5.71,0,0,0,2.69,6.56l302.92,170.26a5.71,5.71,0,0,0,6.91-1,67.34,67.34,0,0,1,30.58-18.44,5.71,5.71,0,0,0,4.25-5.52V330.17A5.71,5.71,0,0,0,1527.55,324.65Zm-8.66,496.92a65.44,65.44,0,0,1-22.62-16.38,5.71,5.71,0,0,0-6.94-1.2L1266.56,923.84a5.71,5.71,0,0,0-3,5.83,7.48,7.48,0,0,0,.18.82,5.72,5.72,0,0,0,5.49,4.15h210A32,32,0,0,0,1511,907.18l11.36-79.55A5.7,5.7,0,0,0,1518.89,821.57ZM1476.27,248,1206.93,140.37a5.83,5.83,0,0,0-2.12-.41,5.7,5.7,0,0,0-4.57,2.28c-10.14,13.46-25,23.13-39.89,25.86a5.71,5.71,0,0,0-4.66,5.26l-17.8,284.94a5.7,5.7,0,0,0,3.85,5.75,67.33,67.33,0,0,1,24.54,15.27,5.7,5.7,0,0,0,4,1.59,5.63,5.63,0,0,0,3-.87l306.46-191.36a5.72,5.72,0,0,0,2.4-6.65,62.05,62.05,0,0,1-2.32-27.93A5.69,5.69,0,0,0,1476.27,248Zm4.57,529.58a50.36,50.36,0,0,1-1.57-19.8c0-.22,0-.44,0-.66a47.87,47.87,0,0,1,1.73-12,5.69,5.69,0,0,0-2.71-6.48l-303-170.33a5.73,5.73,0,0,0-6.92,1A70.62,70.62,0,0,1,1149,583.68a5.72,5.72,0,0,0-3.08,6.17l53.94,287.41a5.72,5.72,0,0,0,5.5,4.65c14.85.32,30.85,8.19,42.79,21a5.7,5.7,0,0,0,6.9,1.14l223-120A5.7,5.7,0,0,0,1480.84,777.61ZM973.18-368.47a5.73,5.73,0,0,0,3.72,1.37,5.71,5.71,0,0,0,3.38-1.1c10.46-7.66,22.33-11.88,33.42-11.88,1,0,1.94,0,2.9.09h.74q1.45-.09,2.91-.09c13.27,0,27.63,6.12,39.39,16.81a5.72,5.72,0,0,0,3.84,1.49,5.72,5.72,0,0,0,3.17-1l361.09-240.5a5.74,5.74,0,0,0,2.17-6.79,53.58,53.58,0,0,1-1.85-5.72,5.71,5.71,0,0,0-5.52-4.25H694.91a5.72,5.72,0,0,0-5.36,3.73,5.69,5.69,0,0,0,1.64,6.31Zm150.33,962.66a5.71,5.71,0,0,0-5.49-4.65c-10.41-.23-21.61-4.21-31.53-11.21a5.67,5.67,0,0,0-3.3-1.05,5.76,5.76,0,0,0-3.8,1.44L689.86,924.66a5.71,5.71,0,0,0,3.79,10h439.42a5.72,5.72,0,0,0,5.53-4.27c4.65-17.85,18.34-34.21,35.72-42.68a5.72,5.72,0,0,0,3.11-6.18ZM709.14,189.93,1076,475a5.66,5.66,0,0,0,3.5,1.21,5.74,5.74,0,0,0,3.59-1.26,61.55,61.55,0,0,1,27.32-13,5.72,5.72,0,0,0,4.68-5.26l17.79-284.9a5.69,5.69,0,0,0-3.85-5.76c-17.9-6.12-34-21.56-41-39.33a5.72,5.72,0,0,0-5.32-3.62,4.12,4.12,0,0,0-.6,0L717.48,161.56a5.7,5.7,0,0,0-5.07,5A54.62,54.62,0,0,1,707.49,183,5.71,5.71,0,0,0,709.14,189.93Zm5.2-51,.61,0,364.7-38.38a5.71,5.71,0,0,0,5.06-4.94c2.28-17.4,13.92-34.8,30.38-45.39a5.7,5.7,0,0,0,2.36-6.5L1026.3-247.76a5.7,5.7,0,0,0-5.45-4h-.66c-.94,0-1.89,0-2.83-.09h-.74c-1,.06-2,.1-2.92.1a53.11,53.11,0,0,1-22.42-5.32,5.67,5.67,0,0,0-2.43-.55,5.75,5.75,0,0,0-4.52,2.2L699,111.17a5.71,5.71,0,0,0,0,7.07,66.08,66.08,0,0,1,10,17A5.71,5.71,0,0,0,714.34,138.89Zm350.89,415.89c-5.29-9.52-7.76-19.55-7.14-29a4.7,4.7,0,0,0,0-.75,51.61,51.61,0,0,1,5.19-25.29,5.71,5.71,0,0,0-1.65-7L694.75,207.66a5.71,5.71,0,0,0-7.07.05,65,65,0,0,1-23.44,12.08A5.7,5.7,0,0,0,660,225.3V907.92a5.71,5.71,0,0,0,3.37,5.21,5.83,5.83,0,0,0,2.34.5,5.75,5.75,0,0,0,3.8-1.44L1064,561.82A5.71,5.71,0,0,0,1065.23,554.78Zm-401-460a58,58,0,0,1,10,3.66,5.71,5.71,0,0,0,7-1.65L966.55-269.76a5.7,5.7,0,0,0-.06-7.08c-9.66-12-14.51-25.73-13.66-38.72a4.7,4.7,0,0,0,0-.75c-.59-9.1,1.68-18.78,6.59-28a5.71,5.71,0,0,0-1.33-7L669.43-598.52a5.74,5.74,0,0,0-3.72-1.37,5.68,5.68,0,0,0-2.38.52,5.7,5.7,0,0,0-3.33,5.18V89.29A5.72,5.72,0,0,0,664.25,94.81Z"/></g><g class="f"><rect class="g" width="1024" height="1024"/><g class="h"><rect x="-112" y="-112" width="1248" height="1248" rx="371.88"/><rect class="i" x="-110.4" y="-110.4" width="1244.8" height="1244.8" rx="370.99"/><rect class="j" x="-108.8" y="-108.8" width="1241.6" height="1241.6" rx="370.11"/><rect class="k" x="-107.2" y="-107.2" width="1238.4" height="1238.4" rx="369.22"/><rect class="l" x="-105.6" y="-105.6" width="1235.2" height="1235.2" rx="368.33"/><rect class="m" x="-104" y="-104" width="1232" height="1232" rx="367.44"/><rect class="n" x="-102.4" y="-102.4" width="1228.8" height="1228.8" rx="366.55"/><rect class="o" x="-100.8" y="-100.8" width="1225.6" height="1225.6" rx="365.66"/><rect class="p" x="-99.2" y="-99.2" width="1222.4" height="1222.4" rx="364.78"/><rect class="q" x="-97.6" y="-97.6" width="1219.2" height="1219.2" rx="363.89"/><rect class="r" x="-96" y="-96" width="1216" height="1216" rx="363"/><rect class="s" x="-94.4" y="-94.4" width="1212.8" height="1212.8" rx="362.11"/><rect class="t" x="-92.8" y="-92.8" width="1209.6" height="1209.6" rx="361.22"/><rect class="u" x="-91.2" y="-91.2" width="1206.4" height="1206.4" rx="360.33"/><rect class="v" x="-89.6" y="-89.6" width="1203.2" height="1203.2" rx="359.44"/><rect class="w" x="-88" y="-88" width="1200" height="1200" rx="358.56"/><rect class="x" x="-86.4" y="-86.4" width="1196.8" height="1196.8" rx="357.67"/><rect class="y" x="-84.8" y="-84.8" width="1193.6" height="1193.6" rx="356.78"/><rect class="z" x="-83.2" y="-83.2" width="1190.4" height="1190.4" rx="355.89"/><rect class="aa" x="-81.6" y="-81.6" width="1187.2" height="1187.2" rx="355"/><rect class="ab" x="-80" y="-80" width="1184" height="1184" rx="354.11"/><rect class="ac" x="-78.4" y="-78.4" width="1180.8" height="1180.8" rx="353.23"/><rect class="ad" x="-76.8" y="-76.8" width="1177.6" height="1177.6" rx="352.34"/><rect class="ae" x="-75.2" y="-75.2" width="1174.4" height="1174.4" rx="351.45"/><rect class="af" x="-73.6" y="-73.6" width="1171.2" height="1171.2" rx="350.56"/><rect class="ag" x="-72" y="-72" width="1168" height="1168" rx="349.67"/><rect class="ah" x="-70.4" y="-70.4" width="1164.8" height="1164.8" rx="348.78"/><rect class="ai" x="-68.8" y="-68.8" width="1161.6" height="1161.6" rx="347.89"/><rect class="aj" x="-67.2" y="-67.2" width="1158.4" height="1158.4" rx="347.01"/><rect class="ak" x="-65.6" y="-65.6" width="1155.2" height="1155.2" rx="346.12"/><rect class="al" x="-64" y="-64" width="1152" height="1152" rx="345.23"/><rect class="am" x="-62.4" y="-62.4" width="1148.8" height="1148.8" rx="344.34"/><rect class="an" x="-60.8" y="-60.8" width="1145.6" height="1145.6" rx="343.45"/><rect class="ao" x="-59.2" y="-59.2" width="1142.4" height="1142.4" rx="342.56"/><rect class="ap" x="-57.6" y="-57.6" width="1139.2" height="1139.2" rx="341.68"/><rect class="aq" x="-56" y="-56" width="1136" height="1136" rx="340.79"/><rect class="ar" x="-54.4" y="-54.4" width="1132.8" height="1132.8" rx="339.9"/><rect class="as" x="-52.8" y="-52.8" width="1129.6" height="1129.6" rx="339.01"/><rect class="at" x="-51.2" y="-51.2" width="1126.4" height="1126.4" rx="338.12"/><rect class="au" x="-49.6" y="-49.6" width="1123.2" height="1123.2" rx="337.23"/><rect class="av" x="-48" y="-48" width="1120" height="1120" rx="336.34"/><rect class="aw" x="-46.4" y="-46.4" width="1116.8" height="1116.8" rx="335.46"/><rect class="ax" x="-44.8" y="-44.8" width="1113.6" height="1113.6" rx="334.57"/><rect class="ay" x="-43.2" y="-43.2" width="1110.4" height="1110.4" rx="333.68"/><rect class="az" x="-41.6" y="-41.6" width="1107.2" height="1107.2" rx="332.79"/><rect class="ba" x="-40" y="-40" width="1104" height="1104" rx="331.9"/><rect class="bb" x="-38.4" y="-38.4" width="1100.8" height="1100.8" rx="331.01"/><rect class="bc" x="-36.8" y="-36.8" width="1097.6" height="1097.6" rx="330.13"/><rect class="bd" x="-35.2" y="-35.2" width="1094.4" height="1094.4" rx="329.24"/><rect class="be" x="-33.6" y="-33.6" width="1091.2" height="1091.2" rx="328.35"/><rect class="bf" x="-32" y="-32" width="1088" height="1088" rx="327.46"/><rect class="bg" x="-30.4" y="-30.4" width="1084.8" height="1084.8" rx="326.57"/><rect class="bh" x="-28.8" y="-28.8" width="1081.6" height="1081.6" rx="325.68"/><rect class="bi" x="-27.2" y="-27.2" width="1078.4" height="1078.4" rx="324.79"/><rect class="bj" x="-25.6" y="-25.6" width="1075.2" height="1075.2" rx="323.91"/><rect class="bk" x="-24" y="-24" width="1072" height="1072" rx="323.02"/><rect class="bl" x="-22.4" y="-22.4" width="1068.8" height="1068.8" rx="322.13"/><rect class="bm" x="-20.8" y="-20.8" width="1065.6" height="1065.6" rx="321.24"/><rect class="bn" x="-19.2" y="-19.2" width="1062.4" height="1062.4" rx="320.35"/><rect class="bo" x="-17.6" y="-17.6" width="1059.2" height="1059.2" rx="319.46"/><rect class="bp" x="-16" y="-16" width="1056" height="1056" rx="318.58"/><rect class="bq" x="-14.4" y="-14.4" width="1052.8" height="1052.8" rx="317.69"/><rect class="br" x="-12.8" y="-12.8" width="1049.6" height="1049.6" rx="316.8"/><rect class="bs" x="-11.2" y="-11.2" width="1046.4" height="1046.4" rx="315.91"/><rect class="bt" x="-9.6" y="-9.6" width="1043.2" height="1043.2" rx="315.02"/><rect class="bu" x="-8" y="-8" width="1040" height="1040" rx="314.13"/><rect class="bv" x="-6.4" y="-6.4" width="1036.8" height="1036.8" rx="313.24"/><rect class="bw" x="-4.8" y="-4.8" width="1033.6" height="1033.6" rx="312.36"/><rect class="bx" x="-3.2" y="-3.2" width="1030.4" height="1030.4" rx="311.47"/><rect class="by" x="-1.6" y="-1.6" width="1027.2" height="1027.2" rx="310.58"/><rect class="bz" width="1024" height="1024" rx="309.69"/><rect class="ca" x="1.6" y="1.6" width="1020.8" height="1020.8" rx="308.8"/><rect class="cb" x="3.2" y="3.2" width="1017.6" height="1017.6" rx="307.91"/><rect class="cc" x="4.8" y="4.8" width="1014.4" height="1014.4" rx="307.03"/><rect class="cd" x="6.4" y="6.4" width="1011.2" height="1011.2" rx="306.14"/><rect class="ce" x="8" y="8" width="1008" height="1008" rx="305.25"/><rect class="cf" x="9.6" y="9.6" width="1004.8" height="1004.8" rx="304.36"/><rect class="cg" x="11.2" y="11.2" width="1001.6" height="1001.6" rx="303.47"/><rect class="ch" x="12.8" y="12.8" width="998.4" height="998.4" rx="302.58"/><rect class="ci" x="14.4" y="14.4" width="995.2" height="995.2" rx="301.69"/><rect class="cj" x="16" y="16" width="992" height="992" rx="300.81"/><rect class="ck" x="17.6" y="17.6" width="988.8" height="988.8" rx="299.92"/><rect class="cl" x="19.2" y="19.2" width="985.6" height="985.6" rx="299.03"/><rect class="cm" x="20.8" y="20.8" width="982.4" height="982.4" rx="298.14"/><rect class="cn" x="22.4" y="22.4" width="979.2" height="979.2" rx="297.25"/><rect class="co" x="24" y="24" width="976" height="976" rx="296.36"/><rect class="cp" x="25.6" y="25.6" width="972.8" height="972.8" rx="295.48"/><rect class="cq" x="27.2" y="27.2" width="969.6" height="969.6" rx="294.59"/><rect class="cr" x="28.8" y="28.8" width="966.4" height="966.4" rx="293.7"/><rect class="cs" x="30.4" y="30.4" width="963.2" height="963.2" rx="292.81"/><rect class="ct" x="32" y="32" width="960" height="960" rx="291.92"/><rect class="cu" x="33.6" y="33.6" width="956.8" height="956.8" rx="291.03"/><rect class="cv" x="35.2" y="35.2" width="953.6" height="953.6" rx="290.14"/><rect class="cw" x="36.8" y="36.8" width="950.4" height="950.4" rx="289.26"/><rect class="cx" x="38.4" y="38.4" width="947.2" height="947.2" rx="288.37"/><rect class="cy" x="40" y="40" width="944" height="944" rx="287.48"/><rect class="cz" x="41.6" y="41.6" width="940.8" height="940.8" rx="286.59"/><rect class="da" x="43.2" y="43.2" width="937.6" height="937.6" rx="285.7"/><rect class="db" x="44.8" y="44.8" width="934.4" height="934.4" rx="284.81"/><rect class="dc" x="46.4" y="46.4" width="931.2" height="931.2" rx="283.93"/><rect class="dd" x="48" y="48" width="928" height="928" rx="283.04"/><rect class="de" x="49.6" y="49.6" width="924.8" height="924.8" rx="282.15"/><rect class="g" x="51.2" y="51.2" width="921.6" height="921.6" rx="281.26"/><rect class="df" x="52.8" y="52.8" width="918.4" height="918.4" rx="280.37"/><rect class="dg" x="54.4" y="54.4" width="915.2" height="915.2" rx="279.48"/><rect class="dh" x="56" y="56" width="912" height="912" rx="278.59"/><rect class="di" x="57.6" y="57.6" width="908.8" height="908.8" rx="277.71"/><rect class="dj" x="59.2" y="59.2" width="905.6" height="905.6" rx="276.82"/><rect class="dk" x="60.8" y="60.8" width="902.4" height="902.4" rx="275.93"/><rect class="dl" x="62.4" y="62.4" width="899.2" height="899.2" rx="275.04"/><rect class="dm" x="64" y="64" width="896" height="896" rx="274.15"/><rect class="dn" x="65.6" y="65.6" width="892.8" height="892.8" rx="273.26"/><rect class="do" x="67.2" y="67.2" width="889.6" height="889.6" rx="272.38"/><rect class="dp" x="68.8" y="68.8" width="886.4" height="886.4" rx="271.49"/><rect class="dq" x="70.4" y="70.4" width="883.2" height="883.2" rx="270.6"/><rect class="dr" x="72" y="72" width="880" height="880" rx="269.71"/><rect class="ds" x="73.6" y="73.6" width="876.8" height="876.8" rx="268.82"/><rect class="dt" x="75.2" y="75.2" width="873.6" height="873.6" rx="267.93"/><rect class="du" x="76.8" y="76.8" width="870.4" height="870.4" rx="267.04"/><rect class="dv" x="78.4" y="78.4" width="867.2" height="867.2" rx="266.16"/><rect class="dw" x="80" y="80" width="864" height="864" rx="265.27"/><rect class="dx" x="81.6" y="81.6" width="860.8" height="860.8" rx="264.38"/><rect class="dy" x="83.2" y="83.2" width="857.6" height="857.6" rx="263.49"/><rect class="dz" x="84.8" y="84.8" width="854.4" height="854.4" rx="262.6"/><rect class="ea" x="86.4" y="86.4" width="851.2" height="851.2" rx="261.71"/><rect class="eb" x="88" y="88" width="848" height="848" rx="260.83"/><rect class="ec" x="89.6" y="89.6" width="844.8" height="844.8" rx="259.94"/><rect class="ed" x="91.2" y="91.2" width="841.6" height="841.6" rx="259.05"/><rect class="ee" x="92.8" y="92.8" width="838.4" height="838.4" rx="258.16"/><rect class="ef" x="94.4" y="94.4" width="835.2" height="835.2" rx="257.27"/><rect class="eg" x="96" y="96" width="832" height="832" rx="256.38"/><rect class="eh" x="97.6" y="97.6" width="828.8" height="828.8" rx="255.49"/><rect class="ei" x="99.2" y="99.2" width="825.6" height="825.6" rx="254.61"/><rect class="ej" x="100.8" y="100.8" width="822.4" height="822.4" rx="253.72"/><rect class="ek" x="102.4" y="102.4" width="819.2" height="819.2" rx="252.83"/><rect class="el" x="104" y="104" width="816" height="816" rx="251.94"/><rect class="em" x="105.6" y="105.6" width="812.8" height="812.8" rx="251.05"/><rect class="en" x="107.2" y="107.2" width="809.6" height="809.6" rx="250.16"/><rect class="eo" x="108.8" y="108.8" width="806.4" height="806.4" rx="249.28"/><rect class="ep" x="110.4" y="110.4" width="803.2" height="803.2" rx="248.39"/><rect class="eq" x="112" y="112" width="800" height="800" rx="247.5"/><rect class="er" x="113.6" y="113.6" width="796.8" height="796.8" rx="246.61"/><rect class="es" x="115.2" y="115.2" width="793.6" height="793.6" rx="245.72"/><rect class="et" x="116.8" y="116.8" width="790.4" height="790.4" rx="244.83"/><rect class="eu" x="118.4" y="118.4" width="787.2" height="787.2" rx="243.94"/><rect class="ev" x="120" y="120" width="784" height="784" rx="243.06"/><rect class="ew" x="121.6" y="121.6" width="780.8" height="780.8" rx="242.17"/><rect class="ex" x="123.2" y="123.2" width="777.6" height="777.6" rx="241.28"/><rect class="ey" x="124.8" y="124.8" width="774.4" height="774.4" rx="240.39"/><rect class="ez" x="126.4" y="126.4" width="771.2" height="771.2" rx="239.5"/><rect class="fa" x="128" y="128" width="768" height="768" rx="238.61"/><rect class="fb" x="129.6" y="129.6" width="764.8" height="764.8" rx="237.73"/><rect class="fc" x="131.2" y="131.2" width="761.6" height="761.6" rx="236.84"/><rect class="fd" x="132.8" y="132.8" width="758.4" height="758.4" rx="235.95"/><rect class="fe" x="134.4" y="134.4" width="755.2" height="755.2" rx="235.06"/><rect class="ff" x="136" y="136" width="752" height="752" rx="234.17"/><rect class="fg" x="137.6" y="137.6" width="748.8" height="748.8" rx="233.28"/><rect class="fh" x="139.2" y="139.2" width="745.6" height="745.6" rx="232.39"/><rect class="fi" x="140.8" y="140.8" width="742.4" height="742.4" rx="231.51"/><rect class="fj" x="142.4" y="142.4" width="739.2" height="739.2" rx="230.62"/><rect class="fk" x="144" y="144" width="736" height="736" rx="229.73"/><rect class="fl" x="145.6" y="145.6" width="732.8" height="732.8" rx="228.84"/><rect class="fm" x="147.2" y="147.2" width="729.6" height="729.6" rx="227.95"/><rect class="fn" x="148.8" y="148.8" width="726.4" height="726.4" rx="227.06"/><rect class="fo" x="150.4" y="150.4" width="723.2" height="723.2" rx="226.18"/><rect class="fp" x="152" y="152" width="720" height="720" rx="225.29"/><rect class="fq" x="153.6" y="153.6" width="716.8" height="716.8" rx="224.4"/><rect class="fr" x="155.2" y="155.2" width="713.6" height="713.6" rx="223.51"/><rect class="fs" x="156.8" y="156.8" width="710.4" height="710.4" rx="222.62"/><rect class="ft" x="158.4" y="158.4" width="707.2" height="707.2" rx="221.73"/><rect class="fu" x="160" y="160" width="704" height="704" rx="220.84"/><rect class="fv" x="161.6" y="161.6" width="700.8" height="700.8" rx="219.96"/><rect class="fw" x="163.2" y="163.2" width="697.6" height="697.6" rx="219.07"/><rect class="fx" x="164.8" y="164.8" width="694.4" height="694.4" rx="218.18"/><rect class="fy" x="166.4" y="166.4" width="691.2" height="691.2" rx="217.29"/><rect class="fz" x="168" y="168" width="688" height="688" rx="216.4"/><rect class="ga" x="169.6" y="169.6" width="684.8" height="684.8" rx="215.51"/><rect class="gb" x="171.2" y="171.2" width="681.6" height="681.6" rx="214.63"/><rect class="gc" x="172.8" y="172.8" width="678.4" height="678.4" rx="213.74"/><rect class="gd" x="174.4" y="174.4" width="675.2" height="675.2" rx="212.85"/><rect class="ge" x="176" y="176" width="672" height="672" rx="211.96"/><rect class="gf" x="177.6" y="177.6" width="668.8" height="668.8" rx="211.07"/><rect class="gg" x="179.2" y="179.2" width="665.6" height="665.6" rx="210.18"/><rect class="gh" x="180.8" y="180.8" width="662.4" height="662.4" rx="209.29"/><rect class="gi" x="182.4" y="182.4" width="659.2" height="659.2" rx="208.41"/><rect class="gj" x="184" y="184" width="656" height="656" rx="207.52"/><rect class="gk" x="185.6" y="185.6" width="652.8" height="652.8" rx="206.63"/><rect class="gl" x="187.2" y="187.2" width="649.6" height="649.6" rx="205.74"/><rect class="gm" x="188.8" y="188.8" width="646.4" height="646.4" rx="204.85"/><rect class="gn" x="190.4" y="190.4" width="643.2" height="643.2" rx="203.96"/><rect class="go" x="192" y="192" width="640" height="640" rx="203.08"/><rect class="gp" x="193.6" y="193.6" width="636.8" height="636.8" rx="202.19"/><rect class="gq" x="195.2" y="195.2" width="633.6" height="633.6" rx="201.3"/><rect class="gr" x="196.8" y="196.8" width="630.4" height="630.4" rx="200.41"/><rect class="gs" x="198.4" y="198.4" width="627.2" height="627.2" rx="199.52"/><rect class="gt" x="200" y="200" width="624" height="624" rx="198.63"/><rect class="gu" x="201.6" y="201.6" width="620.8" height="620.8" rx="197.74"/><rect class="gv" x="203.2" y="203.2" width="617.6" height="617.6" rx="196.86"/><rect class="gw" x="204.8" y="204.8" width="614.4" height="614.4" rx="195.97"/><rect class="gx" x="206.4" y="206.4" width="611.2" height="611.2" rx="195.08"/><rect class="gy" x="208" y="208" width="608" height="608" rx="194.19"/><rect class="gz" x="209.6" y="209.6" width="604.8" height="604.8" rx="193.3"/><rect class="ha" x="211.2" y="211.2" width="601.6" height="601.6" rx="192.41"/><rect class="hb" x="212.8" y="212.8" width="598.4" height="598.4" rx="191.53"/><rect class="hc" x="214.4" y="214.4" width="595.2" height="595.2" rx="190.64"/><rect class="hd" x="216" y="216" width="592" height="592" rx="189.75"/><rect class="he" x="217.6" y="217.6" width="588.8" height="588.8" rx="188.86"/><rect class="hf" x="219.2" y="219.2" width="585.6" height="585.6" rx="187.97"/><rect class="hg" x="220.8" y="220.8" width="582.4" height="582.4" rx="187.08"/><rect class="hh" x="222.4" y="222.4" width="579.2" height="579.2" rx="186.19"/><rect class="hi" x="224" y="224" width="576" height="576" rx="185.31"/><rect class="hj" x="225.6" y="225.6" width="572.8" height="572.8" rx="184.42"/><rect class="hk" x="227.2" y="227.2" width="569.6" height="569.6" rx="183.53"/><rect class="hl" x="228.8" y="228.8" width="566.4" height="566.4" rx="182.64"/><rect class="hm" x="230.4" y="230.4" width="563.2" height="563.2" rx="181.75"/><rect class="hn" x="232" y="232" width="560" height="560" rx="180.86"/><rect class="ho" x="233.6" y="233.6" width="556.8" height="556.8" rx="179.98"/><rect class="hp" x="235.2" y="235.2" width="553.6" height="553.6" rx="179.09"/><rect class="hq" x="236.8" y="236.8" width="550.4" height="550.4" rx="178.2"/><rect class="hr" x="238.4" y="238.4" width="547.2" height="547.2" rx="177.31"/><rect class="hs" x="240" y="240" width="544" height="544" rx="176.42"/><rect class="ht" x="241.6" y="241.6" width="540.8" height="540.8" rx="175.53"/><rect class="hu" x="243.2" y="243.2" width="537.6" height="537.6" rx="174.64"/><rect class="hv" x="244.8" y="244.8" width="534.4" height="534.4" rx="173.76"/><rect class="hw" x="246.4" y="246.4" width="531.2" height="531.2" rx="172.87"/><rect class="hx" x="248" y="248" width="528" height="528" rx="171.98"/><rect class="hy" x="249.6" y="249.6" width="524.8" height="524.8" rx="171.09"/><rect class="hz" x="251.2" y="251.2" width="521.6" height="521.6" rx="170.2"/><rect class="ia" x="252.8" y="252.8" width="518.4" height="518.4" rx="169.31"/><rect class="ib" x="254.4" y="254.4" width="515.2" height="515.2" rx="168.43"/><rect class="ic" x="256" y="256" width="512" height="512" rx="167.54"/><rect class="id" x="257.6" y="257.6" width="508.8" height="508.8" rx="166.65"/><rect class="ie" x="259.2" y="259.2" width="505.6" height="505.6" rx="165.76"/><rect class="if" x="260.8" y="260.8" width="502.4" height="502.4" rx="164.87"/><rect class="ig" x="262.4" y="262.4" width="499.2" height="499.2" rx="163.98"/><rect class="e" x="264" y="264" width="496" height="496" rx="163.09"/><rect class="ih" x="265.6" y="265.6" width="492.8" height="492.8" rx="162.21"/><rect class="ii" x="267.2" y="267.2" width="489.6" height="489.6" rx="161.32"/><rect class="ij" x="268.8" y="268.8" width="486.4" height="486.4" rx="160.43"/><rect class="ik" x="270.4" y="270.4" width="483.2" height="483.2" rx="159.54"/><rect class="il" x="272" y="272" width="480" height="480" rx="158.65"/><rect class="im" x="273.6" y="273.6" width="476.8" height="476.8" rx="157.76"/><rect class="in" x="275.2" y="275.2" width="473.6" height="473.6" rx="156.88"/><rect class="io" x="276.8" y="276.8" width="470.4" height="470.4" rx="155.99"/><rect class="ip" x="278.4" y="278.4" width="467.2" height="467.2" rx="155.1"/><rect class="iq" x="280" y="280" width="464" height="464" rx="154.21"/><rect class="ir" x="281.6" y="281.6" width="460.8" height="460.8" rx="153.32"/><rect class="is" x="283.2" y="283.2" width="457.6" height="457.6" rx="152.43"/><rect class="it" x="284.8" y="284.8" width="454.4" height="454.4" rx="151.54"/><rect class="iu" x="286.4" y="286.4" width="451.2" height="451.2" rx="150.66"/><rect class="iv" x="288" y="288" width="448" height="448" rx="149.77"/><rect class="iw" x="289.6" y="289.6" width="444.8" height="444.8" rx="148.88"/><rect class="ix" x="291.2" y="291.2" width="441.6" height="441.6" rx="147.99"/><rect class="iy" x="292.8" y="292.8" width="438.4" height="438.4" rx="147.1"/><rect class="iz" x="294.4" y="294.4" width="435.2" height="435.2" rx="146.21"/><rect class="ja" x="296" y="296" width="432" height="432" rx="145.33"/></g><rect class="jb" width="1024" height="1024"/><path class="e" d="M936-32.86V198.57a32,32,0,0,1-27.46,31.65l-79.63,11.35a5.52,5.52,0,0,1-.81.06,5.72,5.72,0,0,1-5.26-3.49A65.29,65.29,0,0,0,805,214.23a5.7,5.7,0,0,1-1.4-6.89l121.6-243a5.7,5.7,0,0,1,5.1-3.16,5.75,5.75,0,0,1,1.72.26A5.89,5.89,0,0,1,936-32.86Zm-3.65-559.59a5.69,5.69,0,0,0-2.06-.38,5.7,5.7,0,0,0-4.23,1.87L738.17-384.46a5.68,5.68,0,0,0-.46,7.09c7.65,11,11.45,23.35,10.69,34.78q0,.38,0,.75c.63,9.58-1.9,19.73-7.31,29.33a5.7,5.7,0,0,0,1.16,7L904.89-159.2a5.71,5.71,0,0,0,3.82,1.46,5.69,5.69,0,0,0,3.27-1,62.83,62.83,0,0,1,19.77-9.34,5.7,5.7,0,0,0,4.25-5.52v-413.5A5.71,5.71,0,0,0,932.35-592.45Zm-657.7-13.27,358.1,218.66a5.68,5.68,0,0,0,3,.84,5.73,5.73,0,0,0,4-1.63c12-11.79,27.08-18.55,41.26-18.55,1,0,1.94,0,2.9.1h.74c1-.06,1.92-.1,2.89-.1,8.73,0,18,2.63,26.78,7.61a5.68,5.68,0,0,0,2.81.74,5.68,5.68,0,0,0,4.23-1.87L912.91-610.45a5.72,5.72,0,0,0,1-6.15,5.72,5.72,0,0,0-5.23-3.4H278.73a5.69,5.69,0,0,0-5.52,4.26c-.3,1.12-.63,2.23-1,3.34A5.71,5.71,0,0,0,274.65-605.72Zm631,548.42C894.55-67,886.93-79.51,884.23-92.48A5.71,5.71,0,0,0,878.88-97L383.13-117.68a5.71,5.71,0,0,0-5.45,4,60.51,60.51,0,0,1-4.72,11,5.72,5.72,0,0,0,1.23,7l345.93,305a5.7,5.7,0,0,0,7.09.37c9.79-7,20.84-10.88,31.13-11,.22,0,.43,0,.65,0a46.51,46.51,0,0,1,5.93-.38,52.58,52.58,0,0,1,12,1.45,5.48,5.48,0,0,0,1.32.16,5.7,5.7,0,0,0,5.11-3.16L907-50.45A5.69,5.69,0,0,0,905.69-57.3ZM687.55-278.07c-1,0-1.95,0-2.92-.09l-.37,0-.37,0c-1,.06-1.94.09-2.92.09-14.5,0-30.41-7.43-42.56-19.89a5.71,5.71,0,0,0-4.09-1.72,5.63,5.63,0,0,0-2.83.75L380.66-155.74a5.7,5.7,0,0,0-2.65,6.56c.41,1.39.76,2.78,1.06,4.17a5.7,5.7,0,0,0,5.35,4.53l495.74,20.65a5.7,5.7,0,0,0,5.44-4,62.32,62.32,0,0,1,5-11.51,5.69,5.69,0,0,0-1.16-7L726.79-288.64A5.67,5.67,0,0,0,723-290.1a5.69,5.69,0,0,0-3.27,1C709.52-282,698.1-278.07,687.55-278.07ZM358.91-78.71a5.68,5.68,0,0,0-3.78-1.43,5.67,5.67,0,0,0-3.31,1.06c-9,6.39-18.85,10.25-28.48,11.15A5.71,5.71,0,0,0,318.21-63L283.52,197a5.7,5.7,0,0,0,3.39,6l1,.43c17.69,6.69,32.44,23.72,37.57,43.39a5.71,5.71,0,0,0,5.53,4.27H695.2a5.71,5.71,0,0,0,5.53-4.26,60.07,60.07,0,0,1,5.42-13.49,5.71,5.71,0,0,0-1.24-7ZM313.09-200.59a5.71,5.71,0,0,0,5.59,4.53h.47c14.52,0,30.44,7.44,42.59,19.89a5.69,5.69,0,0,0,4.09,1.73,5.8,5.8,0,0,0,2.84-.75L619.49-318.38a5.7,5.7,0,0,0,2.64-6.57,48.17,48.17,0,0,1-2-16.89,4.7,4.7,0,0,0,0-.75,49,49,0,0,1,2.58-18.66,5.7,5.7,0,0,0-2.45-6.66L262.15-586.6a5.78,5.78,0,0,0-3-.84,5.7,5.7,0,0,0-4,1.64,69.59,69.59,0,0,1-16.48,12,5.69,5.69,0,0,0-2.94,6.23ZM292.16-72.16A69.41,69.41,0,0,1,268.58-89.1a5.73,5.73,0,0,0-4.22-1.85,5.67,5.67,0,0,0-2.67.66L-65.94,83a5.69,5.69,0,0,0-2.86,6.45,47.81,47.81,0,0,1,1.45,14.93c0,.25,0,.49,0,.74a44.9,44.9,0,0,1-.24,8.33,5.7,5.7,0,0,0,3.55,6L204.53,226.74a5.87,5.87,0,0,0,2.12.41,5.72,5.72,0,0,0,4.64-2.37,52.22,52.22,0,0,1,6.54-7.45l.24-.25c9.18-9.73,23-16.32,37.8-18.09a5.71,5.71,0,0,0,5-4.91L295.57-66.16A5.7,5.7,0,0,0,292.16-72.16ZM-202.32-337.31a49.67,49.67,0,0,1,3.4,21,6.26,6.26,0,0,0,0,.75c.08,1.26.11,2.52.09,3.79a5.72,5.72,0,0,0,4,5.56l449.8,143a5.72,5.72,0,0,0,1.73.26,5.71,5.71,0,0,0,4.78-2.57,72.36,72.36,0,0,1,26.34-24,5.69,5.69,0,0,0,2.94-6.23l-77.35-367a5.71,5.71,0,0,0-5.59-4.53h-.46c-13.45,0-27.81-6.11-39.41-16.77a5.74,5.74,0,0,0-3.87-1.5,5.74,5.74,0,0,0-3.17,1l-361,240.48A5.7,5.7,0,0,0-202.32-337.31ZM253.21-116.58a47.43,47.43,0,0,1-1.46-14.91,4.7,4.7,0,0,0,0-.75c-.08-1.26-.12-2.53-.09-3.8a5.72,5.72,0,0,0-4-5.55l-449.79-143a5.43,5.43,0,0,0-1.73-.27,5.72,5.72,0,0,0-4.78,2.58,72.24,72.24,0,0,1-21,20.89,5.69,5.69,0,0,0-2.35,6.49l91.16,291.44a5.71,5.71,0,0,0,5.45,4h.63c1,0,2,0,2.91.1h.76c1-.06,1.93-.09,2.9-.09,15.29,0,31.73,8,44,21.37A5.69,5.69,0,0,0-80,63.8a5.79,5.79,0,0,0,2.67-.66L250.34-110.12A5.73,5.73,0,0,0,253.21-116.58Zm-5.66,441.23a67.56,67.56,0,0,1-28.67-16,5.71,5.71,0,0,0-6.94-.68l-306,191.08a5.71,5.71,0,0,0-2.37,6.7A49.28,49.28,0,0,1-93.66,525a6.26,6.26,0,0,0,0,.75,48,48,0,0,1-1.88,16.48,5.71,5.71,0,0,0,2.69,6.56L210.08,719.06a5.71,5.71,0,0,0,6.91-1,67.34,67.34,0,0,1,30.58-18.44,5.71,5.71,0,0,0,4.25-5.52V330.17A5.71,5.71,0,0,0,247.55,324.65Zm-8.66,496.92a65.44,65.44,0,0,1-22.62-16.38,5.71,5.71,0,0,0-6.94-1.2L-13.44,923.84a5.71,5.71,0,0,0-3,5.83,7.48,7.48,0,0,0,.18.82,5.72,5.72,0,0,0,5.49,4.15h210A32,32,0,0,0,231,907.18l11.36-79.55A5.7,5.7,0,0,0,238.89,821.57ZM196.27,248-73.07,140.37a5.83,5.83,0,0,0-2.12-.41,5.7,5.7,0,0,0-4.57,2.28c-10.14,13.46-25,23.13-39.89,25.86a5.71,5.71,0,0,0-4.66,5.26l-17.8,284.94a5.7,5.7,0,0,0,3.85,5.75,67.33,67.33,0,0,1,24.54,15.27,5.7,5.7,0,0,0,4,1.59,5.63,5.63,0,0,0,3-.87L199.73,288.68a5.72,5.72,0,0,0,2.4-6.65,62.05,62.05,0,0,1-2.32-27.93A5.69,5.69,0,0,0,196.27,248Zm4.57,529.58a50.36,50.36,0,0,1-1.57-19.8c0-.22,0-.44,0-.66a47.87,47.87,0,0,1,1.73-12,5.69,5.69,0,0,0-2.71-6.48l-303-170.33a5.7,5.7,0,0,0-2.79-.73,5.73,5.73,0,0,0-4.13,1.75A70.62,70.62,0,0,1-131,583.68a5.72,5.72,0,0,0-3.08,6.17l53.94,287.41a5.72,5.72,0,0,0,5.5,4.65c14.85.32,30.85,8.19,42.79,21a5.7,5.7,0,0,0,4.19,1.83,5.74,5.74,0,0,0,2.71-.69l223-120A5.7,5.7,0,0,0,200.84,777.61ZM-306.82-368.47a5.73,5.73,0,0,0,3.72,1.37,5.71,5.71,0,0,0,3.38-1.1c10.46-7.66,22.33-11.88,33.42-11.88,1,0,1.94,0,2.9.09h.74q1.46-.09,2.91-.09c13.27,0,27.63,6.12,39.39,16.81a5.72,5.72,0,0,0,3.84,1.49,5.72,5.72,0,0,0,3.17-1l361.09-240.5a5.74,5.74,0,0,0,2.17-6.79,53.58,53.58,0,0,1-1.85-5.72,5.71,5.71,0,0,0-5.52-4.25H-585.09a5.72,5.72,0,0,0-5.36,3.73,5.69,5.69,0,0,0,1.64,6.31Zm150.33,962.66a5.71,5.71,0,0,0-5.49-4.65c-10.41-.23-21.61-4.21-31.53-11.21a5.67,5.67,0,0,0-3.3-1.05,5.76,5.76,0,0,0-3.8,1.44L-590.14,924.66a5.72,5.72,0,0,0-1.55,6.3,5.73,5.73,0,0,0,5.34,3.68h439.42a5.72,5.72,0,0,0,5.53-4.27c4.65-17.85,18.34-34.21,35.72-42.68a5.72,5.72,0,0,0,3.11-6.18ZM-570.86,189.93-204,475a5.66,5.66,0,0,0,3.5,1.21,5.74,5.74,0,0,0,3.59-1.26,61.55,61.55,0,0,1,27.32-13,5.72,5.72,0,0,0,4.68-5.26l17.79-284.9a5.69,5.69,0,0,0-3.85-5.76c-17.9-6.12-34-21.56-41-39.33a5.72,5.72,0,0,0-5.32-3.62,4.12,4.12,0,0,0-.6,0l-364.64,38.38a5.7,5.7,0,0,0-5.07,5A54.62,54.62,0,0,1-572.51,183,5.71,5.71,0,0,0-570.86,189.93Zm5.2-51,.61,0,364.7-38.38a5.71,5.71,0,0,0,5.06-4.94c2.28-17.4,13.92-34.8,30.38-45.39a5.7,5.7,0,0,0,2.36-6.5L-253.7-247.76a5.7,5.7,0,0,0-5.45-4h-.66c-.94,0-1.89,0-2.83-.09h-.74c-1,.06-1.95.1-2.92.1a53.11,53.11,0,0,1-22.42-5.32,5.67,5.67,0,0,0-2.43-.55,5.75,5.75,0,0,0-4.52,2.2L-581,111.17a5.71,5.71,0,0,0,0,7.07,66.08,66.08,0,0,1,10,17A5.71,5.71,0,0,0-565.66,138.89Zm350.89,415.89c-5.29-9.52-7.76-19.55-7.14-29a4.7,4.7,0,0,0,0-.75,51.61,51.61,0,0,1,5.19-25.29,5.71,5.71,0,0,0-1.65-7L-585.25,207.66a5.74,5.74,0,0,0-3.51-1.2,5.7,5.7,0,0,0-3.56,1.25,65,65,0,0,1-23.44,12.08A5.7,5.7,0,0,0-620,225.3V907.92a5.71,5.71,0,0,0,3.37,5.21,5.83,5.83,0,0,0,2.34.5,5.75,5.75,0,0,0,3.8-1.44L-216,561.82A5.71,5.71,0,0,0-214.77,554.78Zm-401-460a58,58,0,0,1,10,3.66,5.68,5.68,0,0,0,2.44.55,5.7,5.7,0,0,0,4.51-2.2l285.35-366.58a5.7,5.7,0,0,0-.06-7.08c-9.66-12-14.51-25.73-13.66-38.72a4.69,4.69,0,0,0,0-.75c-.59-9.1,1.68-18.78,6.59-28a5.71,5.71,0,0,0-1.33-7l-288.66-247.2a5.74,5.74,0,0,0-3.72-1.37,5.68,5.68,0,0,0-2.38.52,5.7,5.7,0,0,0-3.33,5.18V89.29A5.72,5.72,0,0,0-615.75,94.81Z"/><g class="jc"><polygon class="jd" points="228.55 929.57 91.44 116.18 931.24 227.48 228.55 929.57"/></g><path class="je" d="M679.64,411.6a5.71,5.71,0,0,1-2.07-.39l-325-126.28a5.71,5.71,0,0,1,2.07-11h408.6a11,11,0,0,0,1.62-.11l52.1-7.45,81.22-11.58a5.52,5.52,0,0,1,.81-.06,5.71,5.71,0,0,1,4,9.75L777,390.36a5.7,5.7,0,0,1-4,1.67,5.61,5.61,0,0,1-2.87-.78,65.83,65.83,0,0,0-33.13-8.45c-18.24,0-35.09,6.78-45.08,18.14a6.5,6.5,0,0,1-.53.52,46.39,46.39,0,0,0-7,7.77A5.71,5.71,0,0,1,679.64,411.6Z"/><path class="jf" d="M483.43,681.25a5.72,5.72,0,0,1-2.87-.77A65.68,65.68,0,0,0,447.47,672a73.56,73.56,0,0,0-7.84.43l-.62,0a5.72,5.72,0,0,1-5.32-3.64L288,294.62a5.71,5.71,0,0,1,7.39-7.39L670,432.75a5.7,5.7,0,0,1,3.61,5.93C672,453.11,675,468,681.65,479.59a5.7,5.7,0,0,1-.9,6.89L487.48,679.58A5.72,5.72,0,0,1,483.43,681.25Z"/><path class="jg" d="M261.17,903.33a5.7,5.7,0,0,1-5.66-6.51l11.59-81.13,7.46-52.05a12.32,12.32,0,0,0,.11-1.61V353.76a5.71,5.71,0,0,1,4.66-5.61,5.51,5.51,0,0,1,1.06-.1,5.72,5.72,0,0,1,5.32,3.64L412.13,676.45a5.73,5.73,0,0,1-2,6.71,45.9,45.9,0,0,0-7.77,7,4.42,4.42,0,0,1-.53.53c-11.36,10-18.15,26.82-18.15,45a65.7,65.7,0,0,0,8.46,33.1,5.69,5.69,0,0,1-.9,6.91l-126,125.93A5.7,5.7,0,0,1,261.17,903.33Z"/><path class="jh" d="M679.64,411.6a5.71,5.71,0,0,1-2.07-.39l-325-126.28a5.71,5.71,0,0,1,2.07-11h408.6a11,11,0,0,0,1.62-.11l52.1-7.45,81.22-11.58a5.52,5.52,0,0,1,.81-.06,5.71,5.71,0,0,1,4,9.75L777,390.36a5.7,5.7,0,0,1-4,1.67,5.61,5.61,0,0,1-2.87-.78,65.83,65.83,0,0,0-33.13-8.45c-18.24,0-35.09,6.78-45.08,18.14a6.5,6.5,0,0,1-.53.52,46.39,46.39,0,0,0-7,7.77A5.71,5.71,0,0,1,679.64,411.6Zm-192.16,268,193.27-193.1a5.7,5.7,0,0,0,.9-6.89C675,468,672,453.11,673.56,438.68a5.7,5.7,0,0,0-3.61-5.93L295.41,287.23a5.71,5.71,0,0,0-7.39,7.39L433.69,668.85a5.72,5.72,0,0,0,5.32,3.64l.62,0a73.56,73.56,0,0,1,7.84-.43,65.68,65.68,0,0,1,33.09,8.45,5.74,5.74,0,0,0,6.92-.9ZM265.21,901.66l126-125.93a5.69,5.69,0,0,0,.9-6.91,65.7,65.7,0,0,1-8.46-33.1c0-18.2,6.79-35,18.15-45a4.42,4.42,0,0,0,.53-.53,45.9,45.9,0,0,1,7.77-7,5.73,5.73,0,0,0,2-6.71L285.71,351.69a5.72,5.72,0,0,0-5.32-3.64,5.51,5.51,0,0,0-1.06.1,5.71,5.71,0,0,0-4.66,5.61V762a12.32,12.32,0,0,1-.11,1.61l-7.46,52.05-11.59,81.13a5.72,5.72,0,0,0,9.7,4.84Z"/></g></g></svg>