<svg xmlns="http://www.w3.org/2000/svg" width="615" height="112" viewBox="0 0 615 112"><defs><style>.a{fill:#333;}</style></defs><path class="a" d="M478.71,112c-14.07,0-26.88-6-34.25-15.93l-.58-.79,11-8,.57.91a27.44,27.44,0,0,0,23.45,12.7c10.93,0,22.55-6.76,22.55-19.28,0-13.8-11.54-17.34-24.91-21.44l-.33-.11C462,55.75,447,49.51,447,29.82,447,9.33,465.06,0,481.86,0c15.46,0,26.05,6.78,30.8,13.12l.57.75L503.1,21.93l-.61-.86C497.83,14.47,490.54,11,481.41,11c-10.76,0-21.65,6.42-21.65,18.68s10.09,15.63,21.77,19.42l1.93.63c14.48,4.69,30.89,10,30.89,31.13C514.35,102.37,496.45,112,478.71,112Zm-313.48,0c-15.61,0-29.9-5.64-40.24-15.87S108.89,71.6,108.89,56s5.72-29.85,16.1-40.13S149.62,0,165.23,0s29.91,5.64,40.25,15.87S221.57,40.4,221.57,56s-5.71,29.85-16.09,40.13S180.84,112,165.23,112Zm0-100.72c-28.19,0-42.95,22.5-42.95,44.72s14.76,44.57,42.95,44.57,43-22.42,43-44.57S193.43,11.28,165.23,11.28Zm253,99a9,9,0,1,1,9.09-9A9,9,0,0,1,418.27,110.23Zm142.55-.89L519.57,2.66H533.4l34,89.53L601.31,2.66H615L573.59,109.34Zm-237.74,0V2.66h67.83V14.09h-55V48.21h51.44V59.5H335.87V97.91h56.84v11.43Zm-62.25,0V14.09H225.28V2.66h83.89V14.09H273.62v95.25Zm-187.47,0L12.79,21.05v88.29H0V2.66H15L75.59,90.08V2.66H88.38V109.34Z"/></svg>