<svg xmlns="http://www.w3.org/2000/svg" xmlns:xlink="http://www.w3.org/1999/xlink" width="256" height="256" viewBox="0 0 256 256"><defs><style>.a{fill:none;}.b{isolation:isolate;}.c{fill:#5c80aa;}.d{fill:#8b8299;}.e{fill:#ba9293;}.f{fill:#637ba8;}.g{fill:#aecae1;}.h{fill:#468bc0;}.i{fill:#a0b1cf;}.j{fill:#65a6cd;}.k{fill:#eea693;}.l{fill:#dcdcdc;}.m{fill:#7999c4;}.n{fill:#95c4dd;}.o{fill:#75afd2;}.p{fill:#de867c;}.q{fill:#7c90b5;}.r{fill:#d9c5bd;}.s{fill:#f0a78c;}.t{fill:#8b7091;}.u{fill:#dd735e;}.v{fill:#f7931e;}.w{fill:#fbb03b;}.x{fill:#f9c73a;}.y{clip-path:url(#a);}.z{fill:#b3b3b3;mix-blend-mode:color-burn;}.aa{fill:url(#b);}</style><clipPath id="a"><path class="a" d="M239.48,100.64v36.51a.83.83,0,0,1-.7.82l-14.66,2.09H224a.82.82,0,0,1-.76-.5,9.34,9.34,0,0,0-2.56-3.43.82.82,0,0,1-.2-1l17.44-34.87a.82.82,0,0,1,.73-.45l.19,0A.82.82,0,0,1,239.48,100.64ZM239,20.36a.79.79,0,0,0-.3-.05.83.83,0,0,0-.61.26L211.11,50.21a.81.81,0,0,0-.06,1,8,8,0,0,1,1.53,5v.11a7.6,7.6,0,0,1-1.05,4.21.81.81,0,0,0,.17,1l23.32,21a.81.81,0,0,0,.55.21.84.84,0,0,0,.47-.15,8.93,8.93,0,0,1,2.83-1.34.81.81,0,0,0,.61-.79V21.12A.83.83,0,0,0,239,20.36Zm-94.31-1.9L196,49.84a.81.81,0,0,0,1-.12,8.69,8.69,0,0,1,5.91-2.66l.42,0h.11l.41,0a7.92,7.92,0,0,1,3.84,1.09.73.73,0,0,0,.4.11.8.8,0,0,0,.61-.27l27.47-30.21a.83.83,0,0,0,.14-.89.82.82,0,0,0-.75-.48H145.23a.81.81,0,0,0-.79.61c0,.16-.09.32-.14.48A.82.82,0,0,0,144.65,18.46Zm90.48,78.7a9.31,9.31,0,0,1-3.07-5,.84.84,0,0,0-.77-.65l-71.09-3a.82.82,0,0,0-.78.57,8.66,8.66,0,0,1-.68,1.58.81.81,0,0,0,.18,1l49.6,43.77a.84.84,0,0,0,1,.05,8,8,0,0,1,4.46-1.58h.1a6,6,0,0,1,.85-.06,7.35,7.35,0,0,1,1.72.21l.19,0a.82.82,0,0,0,.74-.45l17.73-35.46A.84.84,0,0,0,235.13,97.16ZM203.85,65.48h-.94a8.88,8.88,0,0,1-6.1-2.86.82.82,0,0,0-.59-.24.77.77,0,0,0-.41.11L159.85,83a.8.8,0,0,0-.38.94q.09.3.15.6a.83.83,0,0,0,.77.65l71.08,3a.81.81,0,0,0,.78-.57A8.88,8.88,0,0,1,233,86a.82.82,0,0,0-.16-1L209.48,64a.81.81,0,0,0-.55-.21.84.84,0,0,0-.47.15A8.21,8.21,0,0,1,203.85,65.48ZM156.73,94.09a.81.81,0,0,0-.54-.2.83.83,0,0,0-.48.15,8.47,8.47,0,0,1-4.08,1.6.82.82,0,0,0-.74.71l-5,37.31a.83.83,0,0,0,.48.86l.15.06a9.26,9.26,0,0,1,5.39,6.23.81.81,0,0,0,.79.61H205a.81.81,0,0,0,.79-.61,9.16,9.16,0,0,1,.78-1.94.81.81,0,0,0-.18-1ZM150.16,76.6a.81.81,0,0,0,.8.65H151a8.91,8.91,0,0,1,6.1,2.85.81.81,0,0,0,.59.25.77.77,0,0,0,.41-.11l36-20.55a.8.8,0,0,0,.38-.94,7,7,0,0,1-.28-2.42v-.11a7,7,0,0,1,.37-2.68.81.81,0,0,0-.35-.95L142.85,21.2a.81.81,0,0,0-.42-.12.85.85,0,0,0-.58.23A9.55,9.55,0,0,1,139.49,23a.81.81,0,0,0-.42.9Zm-3,18.43a9.87,9.87,0,0,1-3.39-2.43.82.82,0,0,0-.6-.27.75.75,0,0,0-.38.1l-47,24.86a.81.81,0,0,0-.41.93,7.14,7.14,0,0,1,.21,2.14.21.21,0,0,0,0,.11,6.8,6.8,0,0,1,0,1.19.83.83,0,0,0,.51.86l38.51,15.41a.82.82,0,0,0,1-.28,6.49,6.49,0,0,1,.94-1.07l0,0A9,9,0,0,1,142,134a.84.84,0,0,0,.72-.71l5-37.35A.85.85,0,0,0,147.16,95ZM76.25,57a7.16,7.16,0,0,1,.49,3v.11a4.87,4.87,0,0,1,0,.54.84.84,0,0,0,.57.8L141.82,82a.73.73,0,0,0,.25,0,.85.85,0,0,0,.69-.37,10.39,10.39,0,0,1,3.77-3.45.8.8,0,0,0,.42-.89L135.86,24.62a.82.82,0,0,0-.8-.65H135a8.61,8.61,0,0,1-5.65-2.4.82.82,0,0,0-.55-.22.8.8,0,0,0-.45.14L76.56,56A.82.82,0,0,0,76.25,57Zm65.32,31.68a7.2,7.2,0,0,1-.21-2.14v-.11c0-.18,0-.36,0-.55a.82.82,0,0,0-.57-.79L76.28,64.55a.69.69,0,0,0-.25,0,.8.8,0,0,0-.68.37,10.4,10.4,0,0,1-3,3,.83.83,0,0,0-.33.93l13.07,41.82a.81.81,0,0,0,.78.58h1a8.9,8.9,0,0,1,6.31,3.07.83.83,0,0,0,.61.26.85.85,0,0,0,.38-.09l47-24.87A.82.82,0,0,0,141.57,88.66ZM140.76,152a9.7,9.7,0,0,1-4.11-2.29.82.82,0,0,0-.56-.23.8.8,0,0,0-.44.13L91.77,177a.83.83,0,0,0-.34,1,6.93,6.93,0,0,1,.4,2.77v.1a7,7,0,0,1-.27,2.37.83.83,0,0,0,.39.94l43.44,24.43a.71.71,0,0,0,.4.11.85.85,0,0,0,.59-.25,9.61,9.61,0,0,1,4.38-2.65.81.81,0,0,0,.61-.79V152.77A.81.81,0,0,0,140.76,152Zm-1.24,71.32a9.54,9.54,0,0,1-3.25-2.35.8.8,0,0,0-.6-.27.86.86,0,0,0-.39.09L103.34,238a.8.8,0,0,0-.43.83l0,.12a.82.82,0,0,0,.79.59h33.38a.83.83,0,0,0,.81-.7L140,224.17A.82.82,0,0,0,139.52,223.3ZM133.41,141,94.78,125.53a.77.77,0,0,0-.3-.06.81.81,0,0,0-.65.33,9.68,9.68,0,0,1-5.72,3.71.82.82,0,0,0-.67.76l-2.56,40.89a.83.83,0,0,0,.56.83A9.65,9.65,0,0,1,89,174.18a.8.8,0,0,0,1,.1l43.94-27.46a.83.83,0,0,0,.35-1,8.88,8.88,0,0,1-.34-4A.81.81,0,0,0,133.41,141Zm.65,76a7.31,7.31,0,0,1-.22-2.84v-.1a6.88,6.88,0,0,1,.25-1.72.81.81,0,0,0-.39-.93L90.25,187a.82.82,0,0,0-.4-.1.79.79,0,0,0-.59.25,10,10,0,0,1-2.78,2.06A.81.81,0,0,0,86,190l7.73,41.25a.83.83,0,0,0,.79.67,9,9,0,0,1,6.14,3,.83.83,0,0,0,.6.26.81.81,0,0,0,.39-.1l32-17.22A.81.81,0,0,0,134.06,217ZM61.27,52.51a.8.8,0,0,0,.53.19.77.77,0,0,0,.48-.16,8.29,8.29,0,0,1,4.8-1.7H68a8.66,8.66,0,0,1,5.64,2.41.86.86,0,0,0,.56.22.85.85,0,0,0,.45-.14l51.78-34.52a.82.82,0,0,0,.31-1c-.11-.27-.19-.55-.27-.82a.81.81,0,0,0-.79-.61H21.36a.8.8,0,0,0-.76.53.83.83,0,0,0,.23.91ZM82.82,190.66A.8.8,0,0,0,82,190a8.46,8.46,0,0,1-4.53-1.61.8.8,0,0,0-.47-.15.84.84,0,0,0-.54.2L20.64,238.09a.84.84,0,0,0-.22.91.81.81,0,0,0,.76.52h63a.83.83,0,0,0,.8-.61,9.77,9.77,0,0,1,5.12-6.12.83.83,0,0,0,.44-.89Zm-59.42-58L76,173.56a.8.8,0,0,0,.5.17.84.84,0,0,0,.52-.18,8.82,8.82,0,0,1,3.91-1.86.82.82,0,0,0,.68-.75l2.55-40.89a.83.83,0,0,0-.56-.83,10.07,10.07,0,0,1-5.87-5.64.82.82,0,0,0-.77-.52h-.08l-52.29,5.5a.83.83,0,0,0-.73.72,7.85,7.85,0,0,1-.7,2.36A.82.82,0,0,0,23.4,132.65Zm.75-7.33h.09l52.29-5.51a.83.83,0,0,0,.73-.71,9.56,9.56,0,0,1,4.36-6.52.81.81,0,0,0,.33-.93L68.88,69.83a.82.82,0,0,0-.78-.58H68l-.41,0h-.1l-.42,0a7.63,7.63,0,0,1-3.22-.77.85.85,0,0,0-.35-.08.84.84,0,0,0-.64.32L22,121.34a.81.81,0,0,0,0,1,9.46,9.46,0,0,1,1.43,2.44A.81.81,0,0,0,24.15,125.32ZM74.47,185a7.61,7.61,0,0,1-1-4.16v-.11a7.33,7.33,0,0,1,.75-3.63.83.83,0,0,0-.24-1L21.34,135.19a.84.84,0,0,0-.5-.17.81.81,0,0,0-.51.18A9.45,9.45,0,0,1,17,136.93a.82.82,0,0,0-.61.79v98a.84.84,0,0,0,.48.75.82.82,0,0,0,.88-.14L74.29,186A.83.83,0,0,0,74.47,185ZM17,119a8.84,8.84,0,0,1,1.43.53.85.85,0,0,0,.35.08.81.81,0,0,0,.65-.32L60.32,66.67a.81.81,0,0,0,0-1,8.14,8.14,0,0,1-2-5.56V60a7.58,7.58,0,0,1,.94-4,.81.81,0,0,0-.19-1L17.71,19.49a.81.81,0,0,0-.53-.2.77.77,0,0,0-.34.08.8.8,0,0,0-.48.74V118.2A.81.81,0,0,0,17,119Z"/></clipPath><linearGradient id="b" x1="201.38" y1="201.38" x2="5.07" y2="5.07" gradientUnits="userSpaceOnUse"><stop offset="0" stop-color="#fbb03b"/><stop offset="0.08" stop-color="#f7a93d"/><stop offset="0.21" stop-color="#ea9543"/><stop offset="0.36" stop-color="#d7744c"/><stop offset="0.5" stop-color="#bf4d57"/><stop offset="0.81" stop-color="#5d6094"/><stop offset="1" stop-color="#1d6dbc"/></linearGradient></defs><g class="b"><path class="c" d="M224,140.06a.82.82,0,0,1-.76-.5,9.34,9.34,0,0,0-2.56-3.43.82.82,0,0,1-.2-1l17.44-34.87a.82.82,0,0,1,.73-.45l.19,0a.82.82,0,0,1,.63.8v36.51a.83.83,0,0,1-.7.82l-14.66,2.09Z"/><path class="d" d="M235.57,82.75a.81.81,0,0,1-.55-.21l-23.32-21a.81.81,0,0,1-.17-1,7.6,7.6,0,0,0,1.05-4.21v-.11a8,8,0,0,0-1.53-5,.81.81,0,0,1,.06-1l26.94-29.64a.83.83,0,0,1,.61-.26.79.79,0,0,1,.3.05.83.83,0,0,1,.52.76V80.47a.81.81,0,0,1-.61.79A8.93,8.93,0,0,0,236,82.6.84.84,0,0,1,235.57,82.75Z"/><path class="e" d="M196.42,50a.81.81,0,0,1-.42-.12L144.65,18.46a.82.82,0,0,1-.35-1c0-.16.1-.32.14-.48a.81.81,0,0,1,.79-.61h90.33a.82.82,0,0,1,.75.48.83.83,0,0,1-.14.89L208.7,48a.8.8,0,0,1-.61.27.73.73,0,0,1-.4-.11,7.92,7.92,0,0,0-3.84-1.09l-.41,0h-.11l-.42,0A8.69,8.69,0,0,0,197,49.72.82.82,0,0,1,196.42,50Z"/><path class="f" d="M209.07,135.62a.81.81,0,0,1-.55-.2l-49.6-43.77a.81.81,0,0,1-.18-1,8.66,8.66,0,0,0,.68-1.58.82.82,0,0,1,.78-.57l71.09,3a.84.84,0,0,1,.77.65,9.31,9.31,0,0,0,3.07,5,.84.84,0,0,1,.2,1L217.6,133.61a.82.82,0,0,1-.74.45l-.19,0a7.35,7.35,0,0,0-1.72-.21,6,6,0,0,0-.85.06H214a8,8,0,0,0-4.46,1.58A.82.82,0,0,1,209.07,135.62Z"/><path class="g" d="M160.39,85.23a.83.83,0,0,1-.77-.65q-.06-.3-.15-.6a.8.8,0,0,1,.38-.94l36-20.55a.77.77,0,0,1,.41-.11.82.82,0,0,1,.59.24,8.88,8.88,0,0,0,6.1,2.86h.94a8.21,8.21,0,0,0,4.61-1.58.84.84,0,0,1,.47-.15.81.81,0,0,1,.55.21l23.33,21a.82.82,0,0,1,.16,1,8.88,8.88,0,0,0-.72,1.65.81.81,0,0,1-.78.57Z"/><path class="h" d="M152.73,141.42a.81.81,0,0,1-.79-.61,9.26,9.26,0,0,0-5.39-6.23l-.15-.06a.83.83,0,0,1-.48-.86l5-37.31a.82.82,0,0,1,.74-.71,8.47,8.47,0,0,0,4.08-1.6.83.83,0,0,1,.48-.15.81.81,0,0,1,.54.2l49.61,43.78a.81.81,0,0,1,.18,1,9.16,9.16,0,0,0-.78,1.94.81.81,0,0,1-.79.61Z"/><path class="i" d="M157.72,80.35a.81.81,0,0,1-.59-.25,8.91,8.91,0,0,0-6.1-2.85H151a.81.81,0,0,1-.8-.65L139.07,23.94a.81.81,0,0,1,.42-.9,9.55,9.55,0,0,0,2.36-1.73.85.85,0,0,1,.58-.23.81.81,0,0,1,.42.12l51.36,31.39a.81.81,0,0,1,.35.95,7,7,0,0,0-.37,2.68v.11a7,7,0,0,0,.28,2.42.8.8,0,0,1-.38.94l-36,20.55A.77.77,0,0,1,157.72,80.35Z"/><path class="j" d="M134.9,138a.81.81,0,0,1-.31-.06L96.08,122.52a.83.83,0,0,1-.51-.86,6.8,6.8,0,0,0,0-1.19.21.21,0,0,1,0-.11,7.14,7.14,0,0,0-.21-2.14.81.81,0,0,1,.41-.93l47-24.86a.75.75,0,0,1,.38-.1.82.82,0,0,1,.6.27A9.87,9.87,0,0,0,147.16,95a.85.85,0,0,1,.49.86l-5,37.35a.84.84,0,0,1-.72.71,9,9,0,0,0-5.42,2.59l0,0a6.49,6.49,0,0,0-.94,1.07A.82.82,0,0,1,134.9,138Z"/><path class="k" d="M142.07,82a.73.73,0,0,1-.25,0L77.32,61.44a.84.84,0,0,1-.57-.8,4.87,4.87,0,0,0,0-.54V60a7.16,7.16,0,0,0-.49-3,.82.82,0,0,1,.31-1l51.78-34.51a.8.8,0,0,1,.45-.14.82.82,0,0,1,.55.22A8.61,8.61,0,0,0,135,24h.07a.82.82,0,0,1,.8.65L147,77.29a.8.8,0,0,1-.42.89,10.39,10.39,0,0,0-3.77,3.45A.85.85,0,0,1,142.07,82Z"/><path class="l" d="M93.8,114.54a.83.83,0,0,1-.61-.26,8.9,8.9,0,0,0-6.31-3.07h-1a.81.81,0,0,1-.78-.58L72,68.81a.83.83,0,0,1,.33-.93,10.4,10.4,0,0,0,3-3,.8.8,0,0,1,.68-.37.69.69,0,0,1,.25,0l64.5,20.52a.82.82,0,0,1,.57.79c0,.19,0,.37,0,.55v.11a7.2,7.2,0,0,0,.21,2.14.82.82,0,0,1-.41.92l-47,24.87A.85.85,0,0,1,93.8,114.54Z"/><path class="f" d="M135.79,208.69a.71.71,0,0,1-.4-.11L92,184.15a.83.83,0,0,1-.39-.94,7,7,0,0,0,.27-2.37v-.1a6.93,6.93,0,0,0-.4-2.77.83.83,0,0,1,.34-1l43.88-27.42a.8.8,0,0,1,.44-.13.82.82,0,0,1,.56.23,9.7,9.7,0,0,0,4.11,2.29.81.81,0,0,1,.61.79V205a.81.81,0,0,1-.61.79,9.61,9.61,0,0,0-4.38,2.65A.85.85,0,0,1,135.79,208.69Z"/><path class="m" d="M103.73,239.52a.82.82,0,0,1-.79-.59l0-.12a.8.8,0,0,1,.43-.83l31.94-17.21a.86.86,0,0,1,.39-.09.8.8,0,0,1,.6.27,9.54,9.54,0,0,0,3.25,2.35.82.82,0,0,1,.49.87l-2.09,14.65a.83.83,0,0,1-.81.7Z"/><path class="n" d="M89.52,174.41a.8.8,0,0,1-.56-.23A9.65,9.65,0,0,0,85.44,172a.83.83,0,0,1-.56-.83l2.56-40.89a.82.82,0,0,1,.67-.76,9.68,9.68,0,0,0,5.72-3.71.81.81,0,0,1,.65-.33.77.77,0,0,1,.3.06L133.41,141a.81.81,0,0,1,.5.88,8.88,8.88,0,0,0,.34,4,.83.83,0,0,1-.35,1L90,174.28A.8.8,0,0,1,89.52,174.41Z"/><path class="o" d="M101.3,235.24a.83.83,0,0,1-.6-.26,9,9,0,0,0-6.14-3,.83.83,0,0,1-.79-.67L86,190a.81.81,0,0,1,.44-.88,10,10,0,0,0,2.78-2.06.79.79,0,0,1,.59-.25.82.82,0,0,1,.4.1L133.7,211.4a.81.81,0,0,1,.39.93,6.88,6.88,0,0,0-.25,1.72v.1a7.31,7.31,0,0,0,.22,2.84.81.81,0,0,1-.4.93l-32,17.22A.81.81,0,0,1,101.3,235.24Z"/><path class="p" d="M74.22,53.47a.86.86,0,0,1-.56-.22A8.66,8.66,0,0,0,68,50.84h-.94a8.29,8.29,0,0,0-4.8,1.7.77.77,0,0,1-.48.16.8.8,0,0,1-.53-.19L20.83,17.85a.83.83,0,0,1-.23-.91.8.8,0,0,1,.76-.53H125.7a.81.81,0,0,1,.79.61c.08.27.16.55.27.82a.82.82,0,0,1-.31,1L74.67,53.33A.85.85,0,0,1,74.22,53.47Z"/><path class="q" d="M21.18,239.52a.81.81,0,0,1-.76-.52.84.84,0,0,1,.22-.91L76.5,188.44a.84.84,0,0,1,.54-.2.8.8,0,0,1,.47.15A8.46,8.46,0,0,0,82,190a.8.8,0,0,1,.78.66l7.73,41.24a.83.83,0,0,1-.44.89A9.77,9.77,0,0,0,85,238.91a.83.83,0,0,1-.8.61Z"/><path class="r" d="M76.51,173.73a.8.8,0,0,1-.5-.17L23.4,132.65a.82.82,0,0,1-.23-1,7.85,7.85,0,0,0,.7-2.36.83.83,0,0,1,.73-.72l52.29-5.5H77a.82.82,0,0,1,.77.52,10.07,10.07,0,0,0,5.87,5.64.83.83,0,0,1,.56.83l-2.55,40.89a.82.82,0,0,1-.68.75A8.82,8.82,0,0,0,77,173.55.84.84,0,0,1,76.51,173.73Z"/><path class="s" d="M24.15,125.32a.81.81,0,0,1-.76-.52A9.46,9.46,0,0,0,22,122.36a.81.81,0,0,1,0-1L62.87,68.73a.84.84,0,0,1,.64-.32.85.85,0,0,1,.35.08,7.63,7.63,0,0,0,3.22.77l.42,0h.1l.41,0h.09a.82.82,0,0,1,.78.58L82,111.65a.81.81,0,0,1-.33.93,9.56,9.56,0,0,0-4.36,6.52.83.83,0,0,1-.73.71l-52.29,5.51Z"/><path class="t" d="M17.18,236.51a.8.8,0,0,1-.34-.07.84.84,0,0,1-.48-.75v-98a.82.82,0,0,1,.61-.79,9.45,9.45,0,0,0,3.36-1.73.81.81,0,0,1,.51-.18.84.84,0,0,1,.5.17L74,176.11a.83.83,0,0,1,.24,1,7.33,7.33,0,0,0-.75,3.63v.11a7.61,7.61,0,0,0,1,4.16.83.83,0,0,1-.18,1L17.72,236.3A.8.8,0,0,1,17.18,236.51Z"/><path class="u" d="M18.75,119.6a.85.85,0,0,1-.35-.08A8.84,8.84,0,0,0,17,119a.81.81,0,0,1-.61-.79V20.11a.8.8,0,0,1,.48-.74.77.77,0,0,1,.34-.08.81.81,0,0,1,.53.2L59.1,55a.81.81,0,0,1,.19,1,7.58,7.58,0,0,0-.94,4v.11a8.14,8.14,0,0,0,2,5.56.81.81,0,0,1,0,1L19.4,119.28A.81.81,0,0,1,18.75,119.6Z"/><path class="v" d="M202.72,164.46a.8.8,0,0,1-.3-.06l-46.6-18.12a.82.82,0,0,1,.29-1.58H214.7l.23,0,7.48-1.07L234.05,142h.12a.82.82,0,0,1,.58,1.4l-18.08,18.07a.78.78,0,0,1-.58.24.87.87,0,0,1-.41-.11,9.45,9.45,0,0,0-4.75-1.21,8.62,8.62,0,0,0-6.46,2.6l-.08.07a6.77,6.77,0,0,0-1,1.12A.79.79,0,0,1,202.72,164.46Z"/><path class="w" d="M174.58,203.16a.87.87,0,0,1-.41-.11,9.44,9.44,0,0,0-4.74-1.21,10.69,10.69,0,0,0-1.13.06h-.09a.81.81,0,0,1-.76-.52l-20.89-53.71a.83.83,0,0,1,.77-1.12.72.72,0,0,1,.29.06l53.71,20.88a.84.84,0,0,1,.52.86,9.87,9.87,0,0,0,1.16,5.87.83.83,0,0,1-.13,1l-27.72,27.71A.78.78,0,0,1,174.58,203.16Z"/><path class="x" d="M142.71,235a.9.9,0,0,1-.36-.08.82.82,0,0,1-.45-.85l1.66-11.65,1.07-7.47a1.64,1.64,0,0,0,0-.23V156.16a.82.82,0,0,1,.67-.81h.15a.81.81,0,0,1,.76.52l18.13,46.61a.82.82,0,0,1-.29,1,6.7,6.7,0,0,0-1.11,1,.27.27,0,0,1-.08.07,8.65,8.65,0,0,0-2.6,6.47,9.5,9.5,0,0,0,1.21,4.75.82.82,0,0,1-.12,1l-18.08,18.07A.8.8,0,0,1,142.71,235Z"/><g class="y"><polygon class="z" points="138.03 238.8 118.37 122.06 238.8 138.03 138.03 238.8"/></g><path class="aa" d="M238.7,8.19a9.11,9.11,0,0,1,9.11,9.11V137.24a14.78,14.78,0,0,1-4.33,10.45l-95.79,95.79a14.78,14.78,0,0,1-10.45,4.33H17.3a9.11,9.11,0,0,1-9.11-9.11V17.3A9.11,9.11,0,0,1,17.3,8.19H238.7m0-8.19H17.3A17.32,17.32,0,0,0,0,17.3V238.7A17.32,17.32,0,0,0,17.3,256H137.24a22.82,22.82,0,0,0,16.24-6.73l95.79-95.79A22.82,22.82,0,0,0,256,137.24V17.3A17.32,17.32,0,0,0,238.7,0Z"/></g></svg>