<?xml version="1.0" encoding="utf-8"?>
<!-- Generator: Adobe Illustrator 19.2.0, SVG Export Plug-In . SVG Version: 6.00 Build 0)  -->
<svg version="1.1" id="Layer_1" xmlns="http://www.w3.org/2000/svg" xmlns:xlink="http://www.w3.org/1999/xlink" x="0px" y="0px"
	 viewBox="0 0 240 240" style="enable-background:new 0 0 240 240;" xml:space="preserve">
<style type="text/css">
	.st0{fill:#222222;}
</style>
<g>
	<path class="st0" d="M166.8,49.4L120,1L73.1,49.4c13.3-9.5,29.4-15.1,46.8-15.1C137.4,34.4,153.5,40,166.8,49.4z"/>
	<path class="st0" d="M235.1,120l-46.9-48.5c6.5,9.8,11.1,21.1,13.2,33.2l-55.5,4.4C141.8,98.5,131.7,91,120,91
		c-15.4,0-28,12.9-28,28.9c0,15.9,12.5,28.9,28,28.9c11.8,0,21.8-7.5,25.9-18.1l55.5,4.4c-2.1,12.2-6.7,23.4-13.2,33.2L235.1,120z"
		/>
	<path class="st0" d="M4.9,120l46.8,48.4C42.6,154.6,37.2,138,37.2,120s5.4-34.7,14.5-48.5L4.9,120z"/>
	<path class="st0" d="M73.1,190.6l46.8,48.4l46.8-48.4c-13.3,9.5-29.4,15-46.8,15C102.6,205.6,86.5,200.1,73.1,190.6z"/>
</g>
</svg>
